<?xml version="1.0" encoding="utf-8"?>
<!-- Generator: Adobe Illustrator 21.0.0, SVG Export Plug-In . SVG Version: 6.00 Build 0)  -->
<svg version="1.1" id="Layer_1" xmlns="http://www.w3.org/2000/svg" xmlns:xlink="http://www.w3.org/1999/xlink" x="0px" y="0px"
	 viewBox="0 0 199.9 47.9" width="199.9" height="47.9" style="enable-background:new 0 0 199.9 47.9;" xml:space="preserve">
<style type="text/css">
	.st0{fill:#FFFFFF;}
</style>
<g>
	<g>
		<path class="st0" d="M65.1,24.9c0-9.7,7.1-17.1,16.9-17.1c9.9,0,16.9,7.5,16.9,17.1S91.8,42,82,42S65.1,34.6,65.1,24.9z
			 M94.3,24.9c0-7.2-4.8-13-12.2-13s-12.2,5.8-12.2,13s4.8,13,12.2,13S94.3,32.1,94.3,24.9z"/>
		<path class="st0" d="M128.1,15.8c-1.8-2.4-4.9-3.7-7.8-3.7c-7.3,0-12.1,5.8-12.1,13.2c0,6.9,4.6,12.7,12.1,12.7
			c3.7,0,6.6-1.6,8.5-4.4l3.7,2.8c-1,1.3-4.9,5.7-12.3,5.7c-10.3,0-16.7-8.6-16.7-16.8c0-10.1,7-17.4,16.9-17.4
			c4.3,0,8.8,1.6,11.4,5.1L128.1,15.8z"/>
		<path class="st0" d="M137.7,8.7h4.4v13.5h16.8V8.7h4.4v32.5h-4.4V26.4h-16.8v14.9h-4.4V8.7z"/>
		<path class="st0" d="M181.9,8.7h4l14,32.5h-5.2l-3.2-8H176l-3.2,8h-5.2L181.9,8.7z M189.9,29.3l-6-14.9h-0.1l-6.1,14.9H189.9z"/>
	</g>
	<g>
		<g>
			<path class="st0" d="M23.5,19.9c0-2.5,2-4.5,4.5-4.5l0,0c2.5,0,4.5,2,4.5,4.5l0,0c0,2.5-2,4.5-4.5,4.5l0,0v-0.3v-0.3
				c2.2,0,3.9-1.7,3.9-3.9l0,0c0-2.2-1.7-3.9-3.9-3.9l0,0c-2.2,0-3.9,1.7-3.9,3.9l0,0c0,2.2,1.7,3.9,3.9,3.9l0,0v0.3v0.3
				C25.5,24.4,23.5,22.4,23.5,19.9L23.5,19.9z"/>
			<path class="st0" d="M20,19.9c0-4.5,3.6-8.1,8.1-8.1l0,0c4.5,0,8.1,3.6,8.1,8.1l0,0c0,4.5-3.6,8.1-8.1,8.1l0,0v-0.3v-0.3
				c4.1,0,7.5-3.3,7.5-7.5l0,0c0-4.1-3.3-7.5-7.5-7.5l0,0c-4.1,0-7.5,3.3-7.5,7.5l0,0c0,4.1,3.3,7.5,7.5,7.5l0,0v0.3V28
				C23.5,27.9,20,24.3,20,19.9L20,19.9z"/>
			<path class="st0" d="M16.1,19.9c0-6.6,5.4-11.9,11.9-11.9l0,0c6.6,0,11.9,5.4,11.9,11.9l0,0c0,6.6-5.4,11.9-11.9,11.9l0,0v-0.3
				v-0.3c6.3,0,11.4-5.1,11.4-11.4l0,0c0-6.3-5.2-11.4-11.4-11.5l0,0c-6.3,0-11.4,5.1-11.5,11.5l0,0c0,6.3,5.2,11.4,11.5,11.4l0,0
				v0.3v0.3C21.4,31.8,16.1,26.5,16.1,19.9L16.1,19.9z"/>
			<path class="st0" d="M12.3,19.9c0-8.7,7.1-15.8,15.7-15.8l0,0c8.7,0,15.8,7.1,15.8,15.8l0,0c0,8.7-7.1,15.7-15.8,15.7l0,0v-0.3
				V35c8.4,0,15.2-6.8,15.2-15.2l0,0c0-8.4-6.8-15.1-15.2-15.2l0,0c-8.4,0-15.1,6.8-15.2,15.2l0,0c0,8.4,6.8,15.1,15.2,15.2l0,0v0.3
				v0.3C19.3,35.5,12.3,28.6,12.3,19.9L12.3,19.9z"/>
			<path class="st0" d="M8.2,19.9C8.2,8.9,17,0,28,0l0,0c11,0,19.9,8.9,19.9,19.9l0,0c0,11-8.9,19.9-19.9,19.9l0,0v-0.3v-0.3
				c10.6,0,19.3-8.6,19.3-19.3l0,0C47.3,9.3,38.7,0.6,28,0.6l0,0C17.4,0.6,8.7,9.2,8.7,19.9l0,0c0,10.6,8.6,19.3,19.3,19.3l0,0v0.3
				v0.3C17,39.7,8.2,30.9,8.2,19.9L8.2,19.9z"/>
			<g>
				<g>
					<polygon class="st0" points="27.7,15.7 27.7,0.3 28.3,0.3 28.3,15.7 					"/>
				</g>
			</g>
			<g>
				<g>
					<polygon class="st0" points="14,6.2 14.4,5.8 25.2,16.6 24.9,17.1 					"/>
				</g>
			</g>
			<g>
				<g>
					<polygon class="st0" points="8.4,20.2 8.4,19.6 23.8,19.6 23.8,20.2 					"/>
				</g>
			</g>
			<g>
				<g>
					<polygon class="st0" points="14,33.4 24.9,22.6 25.2,23 14.4,33.9 					"/>
				</g>
			</g>
			<g>
				<g>
					<polygon class="st0" points="27.7,39.4 27.7,24.1 28.3,24.1 28.3,39.4 					"/>
				</g>
			</g>
			<g>
				<g>
					<polygon class="st0" points="30.8,23 31.2,22.6 42.1,33.4 41.7,33.9 					"/>
				</g>
			</g>
			<g>
				<g>
					<polygon class="st0" points="32.2,20.2 32.2,19.6 47.6,19.6 47.6,20.2 					"/>
				</g>
			</g>
			<g>
				<g>
					<polygon class="st0" points="30.8,16.6 41.7,5.8 42.1,6.2 31.2,17.1 					"/>
				</g>
			</g>
		</g>
		<g>
			<path class="st0" d="M25,21.1c0.2,0,0.1,0.1,0.2,0.2c0,0,0,0,0.1,0c0.3-0.3,0.4-0.6,0.5-1l0.1-0.1c0-0.2-0.2-0.2-0.3-0.4
				c-0.1,0.3-0.4,0-0.6,0.2v0.1c0.1,0,0.2,0,0.2,0.1c0,0.1,0,0.2,0,0.3h-0.1c-0.1-0.2-0.3-0.2-0.5-0.2c0.1,0.1-0.1,0,0,0.1
				c-0.3-0.1-0.5,0.1-0.8,0.1c-0.1,0-0.2-0.1-0.2-0.1c-0.1,0.1-0.2,0.3-0.3,0.2c0,0-0.1-0.1-0.1-0.2c0.1-0.1,0.3-0.2,0.3-0.3
				c0.1-0.1,0-0.3,0.1-0.4c0.1-0.2,0.2-0.3,0.3-0.3c0.2,0,0.5,0.1,0.6,0c0,0,0.1,0.1,0.2,0.2v0.1c-0.1,0.1-0.2,0.1-0.3,0.3
				c0,0.1,0,0.2,0.1,0.2c0.1,0.1,0.2-0.1,0.2-0.2c0.1-0.1,0.1,0,0.2,0V20c0.1,0,0.3,0,0.5,0c0.2,0,0.1-0.4,0.1-0.6c0,0,0-0.1,0-0.2
				v-0.1c0.1-0.1,0.3-0.2,0.3,0v0.1c0,0.1,0,0.1,0.1,0.1c0,0,0,0,0-0.1s0-0.2,0.1-0.2c0.1-0.1,0.2,0.1,0.3,0.1s0.2,0,0.3,0
				s0.1-0.1,0-0.2h-0.1C26.4,19,26.3,19,26.2,19S26,18.9,26,18.8c-0.1-0.1-0.2,0.1-0.3,0c-0.1,0-0.2-0.2-0.1-0.3
				c0,0,0.1-0.1,0.2-0.1c0.1-0.1,0.3-0.1,0.4-0.2c0.1-0.1,0.1-0.2,0.1-0.3s0.1-0.1,0.1-0.1c0.2-0.1,0.3,0,0.5-0.1
				c0.2-0.1,0.3-0.2,0.4-0.3c0.1,0,0.1-0.1,0.2-0.1l0.1-0.1c0-0.3,0-0.5,0-0.8c0-0.1,0.1-0.1,0.1-0.2h-0.1c-0.1,0-0.1-0.2,0-0.2
				c0.1-0.1,0.2,0,0.3-0.1c0.1-0.1,0-0.4-0.1-0.4c-0.1-0.1-0.3,0.1-0.5,0c0,0.1-0.1,0.1-0.1,0.1C27,15.9,27,15.6,27,15.5l0,0
				l0.1-0.1H27c-0.2,0.1-0.3,0.3-0.4,0.4v0.1c0,0,0,0.1,0.1,0c0,0.1,0,0.3-0.2,0.3c0,0,0,0,0-0.1c0,0-0.2-0.1-0.2,0
				c0,0.1,0.2,0.2,0.2,0.3c-0.1,0.2-0.3,0.2-0.5,0.3c-0.4,0.2-0.8,0-1.2,0.1c-0.2,0-0.5,0-0.7-0.1c-0.2,0-0.2,0.1-0.3,0.2l0,0
				c0-0.1,0-0.2,0-0.3s-0.1-0.1-0.1-0.1c-0.3-0.5-1-0.5-1.4-0.4c-0.1,0-0.1,0.1-0.2,0.2c-0.1,0.1-0.3,0-0.4,0.1
				c-0.1,0-0.1,0.1-0.1,0.1c-0.2,0-0.3-0.1-0.5,0c-0.1,0.1-0.2,0.1-0.3,0.1c0,0,0,0.1,0,0.2h-0.1c-0.1,0-0.4,0-0.4,0.2
				c0,0,0,0,0.1,0c0.1,0.2,0,0.4-0.2,0.4c-0.2,0.1-0.4,0-0.6,0.1c-0.1,0-0.2,0.1-0.2,0.2c-0.3,0.5-0.6,1-0.6,1.5c0,0,0,0,0,0.1
				l0.1,0.1c-0.3,0.6-0.5,0.9-0.8,1.4c-0.1,0.2-0.3,0.8-0.1,1c0.1,0.1-0.1,0.3-0.2,0.4c-0.2,0-0.5,0-0.6-0.3c0-0.1-0.2-0.1-0.4-0.1
				l0,0h-0.1c-0.2,0-0.3,0-0.5,0c-0.3,0.1-0.3,0.4-0.4,0.6c-0.1,0.2-0.4,0.1-0.5,0.3c0,0.1,0,0.2,0,0.3c0,0.1-0.1,0.1-0.2,0.2
				c0,0,0,0.1-0.1,0.2c-0.1,0.2-0.1,0.4-0.1,0.7c0,0.1,0,0.1,0,0.2c0.1,0.2,0,0.5-0.1,0.7c-0.2,0.2-0.4,0.2-0.7,0.3
				c-0.1,0-0.2-0.1-0.4,0c-0.3,0.1-0.6-0.1-0.9,0c0,0-0.1,0-0.1,0.1c-0.1,0.1-0.2-0.1-0.3-0.2c-0.1-0.1-0.1-0.2-0.2-0.3
				c-0.2-0.1-0.4,0-0.5,0.2c0.1,0,0,0.1,0.1,0.1c-0.2,0-0.3,0.2-0.5,0.2c-0.2,0.1-0.2-0.2-0.2-0.4c0-0.1-0.2-0.2-0.3-0.1l-0.1,0.1
				c0,0-0.1-0.1-0.1,0c-0.1,0.1,0.1,0.1,0.2,0.2c0,0,0,0.1-0.1,0.1c-0.1,0.1-0.2-0.1-0.2,0c0,0.1-0.1,0.1-0.2,0.1c0,0,0,0,0,0.1l0,0
				c-0.1,0-0.1,0.1-0.2,0c-0.1,0,0-0.1-0.1-0.2h-0.1c0,0.1,0,0.2-0.1,0.2c0,0.1,0,0.1,0,0.2c0.1,0,0.2,0,0.2,0
				c0.1,0.1,0.1,0.3,0.1,0.5l0,0c0,0.1,0,0.3-0.1,0.2c-0.1-0.1,0-0.3-0.1-0.4c0,0-0.1,0-0.2,0c0.1,0.2-0.1,0.4,0.1,0.7
				c0.1,0.1-0.2,0.2-0.1,0.3c0.1,0.1,0.2,0.1,0.3,0.1s0-0.1,0-0.1s0.2-0.1,0.2,0c0,0,0,0.1,0,0.2c-0.1,0-0.1,0-0.2,0
				c0.1,0.1,0,0.2-0.1,0.4c0,0,0,0.1,0.1,0.1c0,0.1,0.2,0,0.3,0.1c0,0.1-0.1,0.2,0,0.2c0,0.1,0.1,0,0.2,0.1c0.1,0,0,0.1,0,0.2
				c0.1,0,0.2,0.1,0.1,0.2c0.1,0,0.1-0.1,0.1-0.1c0.2,0,0.1-0.2,0.1-0.3c-0.1,0-0.1-0.1-0.1,0c0-0.1,0-0.2,0-0.3S11,27.3,11,27.2
				c0.1,0,0.2,0,0.3-0.1c0-0.1,0.1,0,0.2,0.1c0,0,0,0,0,0.1c0.1,0,0.1,0.1,0.1,0.1c0.1,0.1,0.1,0.2,0.2,0.2c0.2,0,0.3,0,0.5,0
				c0-0.1,0-0.1,0-0.2c0.1-0.1,0.1,0.1,0.2,0.1c0,0.2,0,0.3,0.2,0.4h0.1l0.1,0.1h0.1c0.1,0,0.1,0.1,0.1,0.2c0,0,0,0,0,0.1
				c0.1,0,0.3,0,0.3,0.1c0.1,0.2,0.2,0.3,0.3,0.5c0,0.1,0.2,0.1,0.2,0.2c0,0.1,0.1,0.1,0.1,0.1c0.1,0.1,0.2,0.1,0.4,0.2
				c0,0,0.1-0.1,0.2-0.1h0.1c0.1,0.2,0.2,0.5,0.4,0.6C15,29.9,15,30,15.2,30c0.1,0,0.2-0.1,0.2,0l0.1,0.1c0.2,0.1,0.3,0.2,0.3,0.3
				c0,0,0,0.1,0.1,0.1c0.1,0,0.3-0.1,0.3,0c0.1,0.1,0.2,0.1,0.3,0.2c0,0,0.1,0.1,0.1,0c0,0,0-0.1,0-0.2c0-0.1,0.1-0.1,0.2-0.1
				c0.1,0,0.1-0.2,0.2-0.2c0.2,0,0.2,0.2,0.4,0.3c0,0,0.1,0,0.1,0.1c0.2,0.1,0.1,0.4,0.3,0.4s0.3,0.2,0.5,0.2c0.1,0,0.3,0.1,0.4,0.2
				c0,0,0.1,0,0.2,0c0.1,0,0.2-0.1,0.2-0.1c0.2-0.1,0.4-0.1,0.6-0.2l0.1-0.1c0.3-0.1,0.7,0.1,1-0.1c0.1,0,0.2,0,0.3-0.1
				c0.2-0.1,0.3-0.4,0.2-0.6c-0.1-0.3-0.3-0.7-0.5-1c-0.1-0.1-0.3-0.2-0.4-0.4c0,0-0.1,0-0.2-0.1c-0.1-0.1-0.1-0.2-0.1-0.3
				c0,0-0.1,0-0.2-0.1c0-0.1,0-0.2,0-0.3c0,0,0-0.1-0.1-0.1c-0.2,0-0.3-0.1-0.5-0.1c-0.1,0-0.1-0.1-0.2-0.1v-0.1
				c0.1-0.1,0.2-0.2,0.4-0.2c0-0.1-0.1-0.2,0-0.2c0.1-0.1,0.1-0.2,0-0.3c0,0,0-0.1-0.1-0.1c0-0.2,0.1-0.3,0-0.5
				c0.1-0.4-0.1-0.5-0.1-0.7L19,25.7c0-0.2,0.1-0.4,0-0.6c0-0.1-0.1-0.2-0.1-0.3c0,0,0.1-0.1,0.2-0.1c0.1-0.1,0.2-0.2,0.1-0.3
				c-0.1-0.1-0.2,0-0.3,0c0,0-0.1,0-0.1-0.1c0-0.1,0.1-0.2,0-0.3c-0.1,0-0.1-0.1-0.2-0.1c-0.1-0.1,0-0.2,0.1-0.3c0,0,0-0.1-0.1-0.1
				c0-0.1,0.1-0.2,0-0.3c0-0.1-0.1-0.2-0.2-0.2l0,0c-0.1,0.1-0.1,0.1-0.2,0V23c0-0.1,0.1,0,0.2-0.1c0.1-0.1,0-0.2,0-0.3
				c-0.2-0.1-0.2-0.3-0.2-0.4c-0.2,0-0.4,0-0.4-0.3c0-0.2,0-0.4-0.1-0.6c0-0.2,0-0.3,0.1-0.4l0.1-0.1c0.2,0,0.5,0,0.6-0.2
				c0.1-0.2-0.1-0.4,0-0.5c0.2-0.2,0.6-0.1,0.8-0.2c0.1-0.1,0.1-0.2,0-0.3c0-0.1-0.1-0.2-0.2-0.3c-0.1-0.1-0.3-0.1-0.4-0.2
				c0-0.1,0-0.2,0-0.2c0-0.1,0.1-0.2,0.3-0.3c0.3-0.1,0.5,0,0.7,0.1c0.1,0,0.1,0.1,0.2,0.2v0.1c0.1,0.3,0.2,0.6,0.1,0.8
				c0,0.1-0.2,0.1-0.1,0.3c0.1-0.1,0.1,0,0.1,0.1c0.1,0.2,0.2,0.5,0,0.6c-0.2,0.1-0.2,0-0.4,0c-0.1,0-0.2,0-0.2,0.1
				c0,0.1,0.1,0.2,0.1,0.2c0.5,0.1,0.8,0.2,1.2,0.3c0.1,0,0.2,0.2,0.3,0.2s0.2,0.1,0.3-0.1h0.1c0,0.1,0.1,0.1,0.2,0.1
				c0.2,0.1,0.1,0.5,0.3,0.4c0.1-0.1,0.2,0,0.3,0c-0.1,0.2-0.1,0.3,0.1,0.5c0.1,0.1,0.2,0.2,0.4,0.3c0.1,0.1,0.2,0.1,0.3-0.1
				c0-0.2-0.1-0.3,0.1-0.5c0.2,0.3-0.1,0.6,0.2,0.9c0,0,0,0,0,0.1c0.1,0.1,0.2,0.2,0.3,0.2c0.1,0,0.1-0.1,0.2-0.2v-0.1
				c0-0.1,0.1-0.2,0.1-0.2c0-0.1,0.2-0.2,0.2-0.4v-0.1c0-0.2,0.2-0.3,0.4-0.3c0.1,0,0,0,0.1-0.1c0.1-0.1,0.1-0.2,0.1-0.3
				c0.1-0.1,0.1-0.2,0.2-0.2c0-0.1,0.1-0.1,0.1-0.2C25,21.2,25,21.1,25,21.1z"/>
			<path class="st0" d="M19.3,20.8c-0.1-0.1-0.1,0-0.2,0c0,0.1,0,0.1,0,0.2c0,0.1,0.1,0.1,0.1,0.2s0,0.3,0,0.4
				c0,0.1,0.2,0.3,0.2,0.2c0.1-0.1,0.2-0.4,0.1-0.5C19.5,21.1,19.5,20.9,19.3,20.8z"/>
			<path class="st0" d="M19.1,22C19.1,22.1,19.1,22.1,19.1,22c0.1,0.2,0.3,0.2,0.4,0.1c0,0,0-0.1-0.1-0.2c-0.1-0.1-0.1,0-0.2-0.1
				h-0.1C19,21.9,19,22,19.1,22z"/>
			<path class="st0" d="M19.4,22.6c0-0.2-0.2-0.3-0.3-0.2c-0.2,0.2,0,0.4,0.2,0.6c0,0,0,0.1,0.1,0.2c0.1,0.1,0.2,0,0.2,0
				c0-0.1,0.1-0.1,0.1-0.2C19.7,22.7,19.6,22.6,19.4,22.6z"/>
			<path class="st0" d="M19,21.4C19,21.4,18.9,21.4,19,21.4c-0.2,0-0.2,0.1-0.2,0.1c0,0.1,0,0.2,0.1,0.3c0,0,0.1,0,0.1-0.1
				C19,21.7,19,21.6,19,21.4z"/>
			<path class="st0" d="M19.6,22.3c0,0,0.1-0.1,0.1-0.2c0.1,0,0.1,0,0.2-0.1v-0.1c-0.1,0-0.2,0.1-0.3,0.2
				C19.4,22.2,19.5,22.3,19.6,22.3z"/>
			<path class="st0" d="M19.4,23.5c0,0.1,0,0.2,0.1,0.2h0.1c0-0.1,0.1-0.1,0-0.2l0,0C19.5,23.4,19.5,23.5,19.4,23.5z"/>
			<path class="st0" d="M19.8,24.5c0-0.1,0.1-0.2,0-0.3h-0.1C19.6,24.4,19.7,24.5,19.8,24.5z"/>
			<path class="st0" d="M11.2,27.8c0,0,0,0.1,0,0.2c0,0,0.1,0,0.2,0C11.4,27.9,11.4,27.7,11.2,27.8z"/>
			<path class="st0" d="M12.1,28.8C12,28.9,12.1,29,12.3,29c0-0.1,0-0.2,0-0.2C12.2,28.8,12.1,28.7,12.1,28.8z"/>
			<path class="st0" d="M12.4,29.2c0,0.3,0.1,0.4,0.3,0.5C12.8,29.4,12.7,29.3,12.4,29.2z"/>
			<path class="st0" d="M26.1,22.4c0.2-0.1,0.5-0.1,0.8-0.1c0.6,0,0.6-0.8,0.9-1.2c0.1-0.1,0-0.4-0.1-0.5c-0.2-0.3-0.9,0-1-0.3
				c-0.1-0.2,0.4,0.1,0.5-0.2c0-0.1,0-0.2-0.1-0.2c-0.1,0-0.3-0.1-0.3,0c-0.3,0.3-0.4,0.8-0.6,1.1c-0.4,0.6-1,1.1-1.2,1.6
				c-0.1,0.1,0,0.2,0.1,0.2C25.4,22.8,25.7,22.5,26.1,22.4z"/>
			<path class="st0" d="M28.5,20.9c-0.1,0-0.2,0.1-0.2,0.1c0,0.1-0.1,0.2,0,0.3h0.2c0.1-0.1,0-0.2-0.1-0.2
				C28.5,21,28.6,21,28.5,20.9z"/>
			<path class="st0" d="M26.8,22.9c0.2,0.2,0.7,0.2,0.6-0.1c-0.1-0.2-0.4-0.3-0.6-0.2C26.6,22.6,27,22.8,26.8,22.9z"/>
			<path class="st0" d="M27.3,24.7c0.2-0.1,0.1-0.3,0.1-0.5c-0.2,0.1-0.3,0.2-0.4,0.5C27.2,24.7,27.2,24.7,27.3,24.7z"/>
			<path class="st0" d="M29.8,21.1v-0.2c0,0-0.1,0-0.2,0c-0.1,0-0.1-0.1-0.1-0.2c0-0.1-0.1-0.2-0.1-0.4c-0.2,0.1-0.1,0.2-0.1,0.3
				C29.4,20.8,29.5,21.2,29.8,21.1z"/>
			<path class="st0" d="M26.6,19.4C26.5,19.4,26.4,19.4,26.6,19.4C26.5,19.5,26.6,19.5,26.6,19.4C26.7,19.5,26.6,19.5,26.6,19.4z"/>
			<path class="st0" d="M10.6,24.6C10.6,24.5,10.6,24.5,10.6,24.6c-0.2-0.2-0.2-0.1-0.3-0.2c0,0.1,0,0.1,0,0.2
				C10.4,24.7,10.5,24.7,10.6,24.6z"/>
			<path class="st0" d="M11.6,24.7c0.1,0,0.2-0.1,0.2-0.2l0,0C11.6,24.4,11.4,24.4,11.6,24.7C11.4,24.6,11.5,24.7,11.6,24.7z"/>
			<path class="st0" d="M27,15.1c0-0.1,0.2-0.1,0.2-0.2c0,0-0.1,0-0.2,0C26.9,14.9,26.9,15,27,15.1C26.9,15.1,26.9,15.1,27,15.1
				C26.9,15.1,27,15.1,27,15.1z"/>
			<path class="st0" d="M27.4,14.9c0,0,0.1-0.1,0-0.2c-0.1-0.1-0.2-0.1-0.2,0C27.2,14.8,27.3,15,27.4,14.9z"/>
			<path class="st0" d="M26,18.5c-0.1,0.2,0.2,0.4,0.4,0.3c0.1-0.1,0.1-0.3,0-0.3C26.2,18.4,26,18.4,26,18.5z"/>
			<path class="st0" d="M26.3,19.6c0.1-0.1,0-0.1-0.1-0.2c-0.1,0-0.2,0-0.3,0c0,0,0,0-0.1,0c0,0.1,0,0.1,0.1,0.1
				C26.1,19.5,26.2,19.6,26.3,19.6z"/>
			<path class="st0" d="M25.9,19.9c-0.1,0-0.1,0.2,0,0.3c0.1,0,0.2,0,0.3-0.1c0-0.1,0.1-0.2,0-0.3C26,19.7,26,19.8,25.9,19.9z"/>
			<path class="st0" d="M25.6,19.5c0,0.1-0.1,0.3,0,0.4c0,0.1,0.1,0.1,0.2,0c0-0.1,0-0.2,0.1-0.3c0,0-0.1-0.1-0.1,0v-0.1
				C25.7,19.5,25.6,19.5,25.6,19.5z"/>
			<path class="st0" d="M27.4,27L27.4,27L27.4,27L27.4,27z"/>
			<path class="st0" d="M35.9,29L35.9,29C35.9,29,35.9,29,35.9,29C35.9,29,35.9,29,35.9,29z"/>
			<path class="st0" d="M28.1,23.8C28.1,23.9,28.1,23.8,28.1,23.8c-0.1-0.1-0.2-0.1-0.2-0.2c-0.1-0.1-0.1,0.1-0.2,0.1c0,0,0,0,0,0.1
				c0.1,0.1,0,0.2-0.1,0.3c0,0.1,0.1,0.1,0.1,0.2c0,0.1-0.1,0.2,0,0.3c0,0-0.1,0.1-0.1,0.2c0,0-0.1,0.1,0,0.2
				c0.1,0.1,0.3-0.1,0.4-0.1c0.1,0,0.1,0,0.2-0.1c0.1-0.1,0.2-0.1,0.2-0.2l-0.2-0.1c0.1-0.2,0-0.3,0-0.5C28,24,28.1,23.8,28.1,23.8z
				"/>
			<path class="st0" d="M29,26.4L29,26.4c0.2-0.1,0.2-0.2,0.1-0.3c0-0.1-0.2-0.1-0.2,0C28.9,26.3,28.9,26.4,29,26.4z"/>
			<path class="st0" d="M29.1,26c0.1,0,0-0.1,0-0.2H29C28.9,25.9,29,26.1,29.1,26z"/>
			<path class="st0" d="M29.8,26.4L29.8,26.4c-0.1,0-0.2-0.1-0.3-0.1h-0.1c0,0.1,0,0.2,0,0.2C29.6,26.6,29.7,26.6,29.8,26.4z"/>
			<path class="st0" d="M31.3,26.3L31.3,26.3c-0.1-0.1-0.2,0-0.4,0c0,0.1,0,0.1,0,0.1h-0.1C30.9,26.5,31.1,26.4,31.3,26.3z"/>
			<path class="st0" d="M31.7,25.8c0.1,0.2,0.3,0.1,0.3,0C32,25.7,31.9,25.7,31.7,25.8C31.8,25.8,31.8,25.8,31.7,25.8
				C31.8,25.7,31.7,25.7,31.7,25.8z"/>
			<path class="st0" d="M38.2,21.5c0,0.1,0.2,0.1,0.3,0.2c0.1,0,0.3,0,0.4-0.1c0.1-0.2-0.2-0.4-0.4-0.4
				C38.2,21.2,38.2,21.4,38.2,21.5z"/>
			<path class="st0" d="M38.2,28.4c-0.1,0-0.2,0-0.2,0c-0.2,0.7-0.8,1.6,0,2c0.3,0.2,0.8-0.2,0.8-0.4C38.9,29.5,38.8,28.7,38.2,28.4
				z"/>
			<path class="st0" d="M36.2,25.4c-0.1,0.1-0.1,0.3,0,0.3s0.1-0.1,0.2-0.1c0.1-0.1,0.1-0.2,0-0.2C36.3,25.4,36.2,25.4,36.2,25.4z"
				/>
			<path class="st0" d="M36.7,32.3c-0.1,0.1,0,0.3,0.1,0.3C36.8,32.5,37,32.4,36.7,32.3L36.7,32.3z"/>
			<path class="st0" d="M39.8,16.5c-0.1,0-0.1,0-0.2,0.1c0,0.1,0,0.2,0,0.3c-0.2,0.6-1,1.1-0.6,1.8h0.1c0.2-0.1,0.3-0.3,0.4-0.5
				c0.2-0.4,0.4-0.9,0.5-1.3C40,16.7,40,16.5,39.8,16.5z"/>
			<path class="st0" d="M38.6,18.9c-0.1,0.1,0.1,0.2,0.2,0.1c0.1,0,0.1-0.2,0.1-0.2C38.8,18.8,38.7,18.8,38.6,18.9z"/>
			<path class="st0" d="M31.7,14.7c-0.1-0.3-0.3,0-0.5,0c-0.1,0-0.1-0.1-0.1-0.1c-0.1,0-0.1,0-0.2,0.1c-0.1,0.1,0,0.2,0.1,0.2
				c0.1,0,0.1-0.1,0.2,0c0.1,0.1,0,0.4,0.2,0.3c0.1,0,0.2-0.1,0.4-0.1c0.1,0,0.2-0.2,0.1-0.3c0.2,0,0.3-0.1,0.4,0
				c0,0,0.1,0.1,0.1,0.2c0,0.1,0.2,0.1,0.3,0.1c0.1,0,0.3,0,0.4-0.1c0.1-0.1,0.1-0.3,0-0.4c-0.1,0-0.2,0-0.2,0
				c-0.1-0.1-0.2-0.2-0.3-0.2C32.2,14.2,32,14.5,31.7,14.7z"/>
			<path class="st0" d="M33,15.1L33,15.1L33,15.1L33,15.1z"/>
			<path class="st0" d="M30.4,14.9c0.1,0,0.3,0,0.4,0l0,0C30.8,14.7,30.6,14.7,30.4,14.9L30.4,14.9L30.4,14.9
				C30.3,14.9,30.4,15,30.4,14.9z"/>
			<path class="st0" d="M30.9,15.9c0.2-0.2,0.4-0.3,0.6-0.4c0,0,0,0,0-0.1c0,0,0,0,0,0.1c0-0.1-0.1-0.2-0.2-0.2
				c0,0.1-0.1,0.2-0.2,0.2C31,15.6,30.8,15.7,30.9,15.9c-0.1,0-0.2,0.2-0.1,0.2C30.9,16.1,30.9,15.9,30.9,15.9z"/>
			<path class="st0" d="M28.9,14.5c0,0.1,0,0.1,0.1,0.2c0.1,0,0.1-0.1,0.1-0.2C29,14.4,28.9,14.4,28.9,14.5z"/>
			<path class="st0" d="M24,11.5c0.2,0.1,0.4,0.1,0.5,0.1c0,0,0.1-0.1,0.1-0.2c-0.1-0.1-0.2,0-0.3-0.1h-0.1
				C24.1,11.2,24.1,11.3,24,11.5C23.9,11.5,24,11.5,24,11.5z"/>
			<path class="st0" d="M36.3,13.7c-0.1,0.1-0.2,0-0.3,0.1c-0.1,0-0.1,0.1,0,0.2c0.1,0.2,0.2,0.1,0.4,0c0,0.1,0,0,0.1,0.1
				c0.1,0,0.1-0.1,0.2-0.1V14c-0.1,0.1-0.1,0.2-0.2,0.2c-0.1,0-0.2,0-0.2-0.1h-0.1l0,0c0,0.1,0,0.2,0,0.2c-0.2,0.2-0.6,0.3-0.4,0.5
				c0.1,0.2,0.4,0.1,0.7,0.1c0,0,0.1,0,0-0.1c0-0.2,0.1-0.3,0.2-0.4c0.1,0,0-0.1-0.1-0.2c-0.1,0,0-0.2,0.1-0.2
				c0.1,0,0.1-0.1,0.2-0.1c0-0.1,0-0.1,0-0.1c0.1,0,0.3-0.1,0.2-0.2c0-0.2-0.2-0.3-0.1-0.5c0-0.1,0.1-0.1,0.2-0.2c0,0,0.1-0.1,0-0.1
				c0,0,0,0-0.1,0c0,0.1-0.1,0-0.1,0.1c-0.1,0-0.3,0-0.4,0.1C36.3,13.4,36.4,13.6,36.3,13.7z"/>
			<path class="st0" d="M34.9,15.1c0,0.2,0.2,0.1,0.3,0c-0.1,0,0-0.1-0.1-0.1C35.1,15,35,15.1,34.9,15.1z"/>
			<path class="st0" d="M36.9,14.7c-0.1,0.1,0.2,0.1,0.3,0.1l0,0c0,0,0,0,0-0.1C37.1,14.7,36.9,14.7,36.9,14.7z"/>
			<path class="st0" d="M37.4,14L37.4,14C37.4,14,37.4,14.2,37.4,14C37.4,14.1,37.4,14.1,37.4,14C37.4,14.1,37.4,14,37.4,14z"/>
			<path class="st0" d="M34.3,8.6c0.1,0.1,0.2,0.2,0.3,0.3c0.1,0.2,0,0.3,0.1,0.5c0,0.1,0.1,0.1,0.1,0.1c0.1,0.1,0,0.2,0,0.3
				c0.1,0.2,0.1,0.4,0.1,0.6c0.1,0,0.1,0.1,0.2,0.1c0,0.1,0.1,0.2,0.1,0.3s0.2,0.1,0.3,0.2c0.1,0.2,0.3,0.4,0.5,0.5
				c0.1,0,0.2,0,0.2,0.1v0.1c0.3,0,0.6,0.2,0.5,0.5c0.1-0.1,0.2-0.1,0.3-0.2c0.1-0.2,0.1-0.4,0-0.6c-0.1-0.1-0.2-0.2-0.2-0.3
				s0-0.2,0-0.2c0-0.1-0.2-0.1-0.2-0.1c-0.1-0.1-0.1-0.4,0.2-0.4c0,0,0,0,0-0.1c-0.1,0-0.2,0-0.3,0c-0.1,0-0.1-0.1-0.1-0.1
				c0-0.1,0-0.3-0.1-0.4c-0.1-0.1-0.3-0.1-0.4-0.2c-0.1-0.1-0.2-0.1-0.3-0.2c-0.1,0-0.2,0.1-0.2,0c-0.2-0.3-0.4-0.5-0.6-0.8
				C34.7,8.5,34.6,8.5,34.3,8.6L34.3,8.6c0.1,0,0.1,0,0.2,0C34.3,8.5,34.3,8.6,34.3,8.6z"/>
			<path class="st0" d="M33.1,9.1c-0.1,0.1-0.1,0.3,0,0.3c0.1,0.1,0.3,0,0.5,0c0.1,0,0.2-0.1,0.2-0.2c0.1-0.1,0.3-0.1,0.5-0.1
				c0,0.1,0.1,0.1,0.1,0.1c0-0.1,0-0.3-0.1-0.3C34,8.8,34,8.7,33.9,8.5c0-0.1-0.1,0-0.1,0.1c0,0.3-0.2,0.2-0.4,0.3V9c0,0,0,0-0.1,0
				c0,0-0.1,0,0-0.1C33.3,8.9,33.2,8.9,33.1,9.1C33.3,9,33.2,9,33.1,9.1z"/>
			<path class="st0" d="M29.9,3.8c-0.2-0.3-0.4-0.6-0.3-1C30,3.1,30.4,3,30.9,2.8c0.3-0.1,0.7,0.1,1-0.1c0,0,0-0.1,0-0.2
				c-0.4,0.2-0.7-0.3-1-0.1c-0.4,0.3-0.9,0.3-1.2,0.4c-0.3,0.1-1.1,0-1.2,0.5c0.5,0,1,0,1.2,0.5C29.6,3.8,29.8,3.8,29.9,3.8z"/>
			<path class="st0" d="M31.3,5.8c0.1,0.2,0.4,0.3,0.6,0.4c0-0.1,0-0.2-0.1-0.2C31.6,5.8,31.4,5.8,31.3,5.8z"/>
			<path class="st0" d="M31,6.5c-0.1,0,0,0.2,0.1,0.2C31.1,6.6,31.2,6.4,31,6.5z"/>
			<path class="st0" d="M30.7,6C30.7,6.1,30.7,6.1,30.7,6C30.8,6,30.7,6,30.7,6c0.1-0.2-0.1-0.2-0.2-0.3v0.1C30.5,5.9,30.6,6,30.7,6
				z"/>
			<path class="st0" d="M31.8,7.6C31.8,7.6,31.9,7.6,31.8,7.6C31.9,7.6,31.9,7.5,31.8,7.6L31.8,7.6c0.1-0.1,0.1-0.2,0.1-0.3h-0.1
				C31.7,7.5,31.8,7.5,31.8,7.6z"/>
			<path class="st0" d="M32.3,7.6c0,0.1,0,0.1,0,0.2h0.1C32.4,7.7,32.4,7.7,32.3,7.6C32.4,7.5,32.3,7.6,32.3,7.6z"/>
			<path class="st0" d="M32.1,7.9C32.1,8,32.2,7.9,32.1,7.9L32.1,7.9L32.1,7.9L32.1,7.9L32.1,7.9c0-0.2-0.1-0.2-0.1-0.2
				C31.9,7.8,32.1,7.8,32.1,7.9z"/>
			<path class="st0" d="M32.3,8C32.3,8,32.2,8,32.3,8c0.1,0.2,0.2,0.2,0.3,0.2c0.1,0,0.1-0.1,0.1-0.2C32.6,7.9,32.4,8,32.3,8L32.3,8
				z"/>
			<path class="st0" d="M32.9,8.3C33,8.3,32.9,8.2,32.9,8.3c0-0.2-0.1-0.3-0.1-0.2C32.7,8.1,32.7,8.3,32.9,8.3
				C32.8,8.3,32.9,8.3,32.9,8.3z"/>
			<path class="st0" d="M33.1,8.7C33.1,8.7,33.2,8.7,33.1,8.7l0.1-0.2l0,0V8.4c0,0-0.1,0.1-0.1,0l0,0c0,0-0.1-0.1-0.1,0
				C32.9,8.4,32.9,8.5,33.1,8.7C33,8.5,33.1,8.6,33.1,8.7z"/>
			<path class="st0" d="M32.8,9C32.8,9,32.8,8.9,32.8,9c0.1-0.1,0.1-0.2,0.1-0.2s0,0-0.1,0C32.8,8.8,32.8,8.9,32.8,9
				C32.7,8.9,32.7,9,32.8,9z"/>
			<path class="st0" d="M32.4,2.2L32.4,2.2L32.4,2.2c-0.1-0.1-0.2-0.1-0.2-0.1C32.2,2.2,32.3,2.3,32.4,2.2z"/>
			<path class="st0" d="M37,5.5c0.1,0.1,0.2,0,0.3,0.1s0.1,0.2,0.3,0.2c0.1,0,0.2,0,0.2-0.1c0-0.2-0.1-0.5-0.3-0.6
				c-0.2-0.1-0.4-0.1-0.7-0.1c-0.1,0-0.1,0.2-0.1,0.2C36.8,5.4,36.9,5.4,37,5.5z"/>
			<path class="st0" d="M42.5,12.5c-0.2-0.2-0.2-0.4-0.3-0.6c-0.1-0.1-0.3-0.2-0.4-0.3c-0.1-0.1,0-0.2,0-0.3c-0.1,0-0.1-0.1-0.1-0.1
				c-0.1-0.2-0.2-0.3-0.3-0.4c0.1-0.2-0.2-0.3-0.4-0.4v-0.1c0-0.1-0.1-0.1-0.2-0.1h-0.1c-0.1-0.1-0.3-0.3-0.3-0.4
				c-0.1-0.2-0.3-0.3-0.4-0.4C40,9.6,40,9.4,40,9.4c-0.1,0-0.3,0-0.3-0.1c0-0.3-0.2-0.4-0.4-0.6c-0.3-0.2,0-0.6-0.1-0.9
				c0-0.1-0.2-0.1-0.3-0.1c0,0-0.1,0-0.1-0.1c-0.1-0.2,0-0.4-0.2-0.6c-0.2-0.3-0.4-0.5-0.6-0.8c-0.1-0.1-0.3-0.1-0.5-0.1
				c0,0-0.1,0-0.1-0.1c-0.2-0.1-0.2-0.2-0.2-0.3c-0.1-0.2-0.3-0.2-0.4-0.3c-0.3-0.1-0.6-0.1-0.9-0.1c-0.2,0-0.5,0.1-0.7,0.2
				c-0.2,0.2-0.5,0.2-0.7,0.3c-0.1,0,0,0.2,0,0.2c-0.2,0.2-0.3,0.3-0.3,0.4c0,0-0.1,0,0,0c0.1,0.1,0.2,0,0.2,0
				c0.1,0,0.1,0.1,0.2,0.2c0.1,0.1,0.3,0.2,0.3,0.4c0,0.1-0.1,0.2,0,0.2c0.2,0.2,0.1,0.3,0.1,0.5c0,0.1,0.2,0,0.2,0
				c0.2,0.1,0.3,0.4,0.2,0.6c0,0.1,0,0.3,0,0.4c0.1,0.2,0.1,0.5,0.3,0.7c0-0.1,0.1-0.2,0.1-0.2c0.2,0,0.2-0.1,0.3-0.2
				c0.3-0.2,0.6,0.2,0.7,0.5c0.1,0.3,0,0.6,0.1,0.8c0.1,0.2,0.2,0.4,0.5,0.6c0.1,0,0.1,0.2,0.1,0.3s0.1,0.1,0.2,0.1s0-0.2,0.1-0.2
				s0.2,0,0.2,0.1c0.2,0.3,0.3,0.8,0.7,0.8c0,0.1,0,0.1,0.1,0.1c0.1,0,0.2-0.1,0.2,0c0.1,0.1,0.1,0.2,0.2,0.3c0.2,0,0.3,0,0.5,0
				c0.1,0,0.2,0.1,0.2,0.2c0,0.1,0.1,0.1,0.2,0.2c0.3,0.3,0.4,0.7,0.8,0.9c0.1,0.1,0.2,0.2,0.4,0.2c0,0,0-0.1,0.1-0.1
				s0.2-0.1,0.3-0.2c0.1-0.1,0.3-0.3,0.5-0.4v-0.1C42.2,12.8,42.3,12.8,42.5,12.5C42.6,12.8,42.5,12.6,42.5,12.5z"/>
			<path class="st0" d="M37.1,11.9C37.1,11.9,37.2,11.9,37.1,11.9c0.1,0,0.1,0,0.2,0H37.1z"/>
			<path class="st0" d="M36.8,12.7c0.1,0.1,0.2,0.1,0.3,0.2c0.1,0.1,0.2,0.2,0.2,0.3c0.2,0.1,0.1-0.2,0.2-0.3c0,0,0.1,0,0.2,0
				c0.1-0.2,0-0.4-0.2-0.5c-0.1-0.1-0.2-0.3-0.4-0.3c-0.1,0-0.2,0-0.2,0.1C36.8,12.3,36.9,12.5,36.8,12.7
				C36.9,12.5,36.8,12.6,36.8,12.7z"/>
			<path class="st0" d="M37.9,13.3c-0.1,0.3,0,0.5-0.1,0.8c0,0.1-0.2,0.1-0.3,0.2s-0.1,0.2-0.1,0.3c0,0.2,0.2,0.2,0.4,0.2
				c0.3,0.2,0.7,0.4,0.9,0.8c0.1,0.1,0.1,0.3,0.2,0.4c0.1,0.1,0.3,0.1,0.3,0.3c0,0.1,0.1,0.1,0.2,0.1c0.2-0.1,0.2-0.4,0-0.6
				c-0.1-0.1-0.2-0.2-0.2-0.3c0-0.4-0.1-0.7-0.3-1.1c-0.1-0.2-0.4-0.3-0.5-0.4c0,0-0.1-0.1,0-0.1c0-0.1,0.1-0.2,0.2-0.3
				c0-0.2-0.2-0.3-0.3-0.5h-0.1h0.1C38.1,13.1,37.9,13.1,37.9,13.3z"/>
			<path class="st0" d="M39.8,15.1c0-0.1,0-0.2,0-0.4c0-0.2-0.2-0.2-0.4-0.2c-0.1,0-0.2,0-0.2,0.1s0,0.2,0,0.3
				c0.3,0.4,0.3,0.9,0.4,1.2c0,0.2,0.4,0,0.4-0.2c0-0.1,0-0.2,0-0.3c0-0.1-0.1-0.2-0.2-0.3C39.9,15.4,39.9,15.3,39.8,15.1z"/>
			<path class="st0" d="M39.3,14c-0.1,0.1,0.1,0.2,0,0.4c0,0,0,0,0.1,0c0.1,0,0.1-0.1,0.1-0.1C39.3,14.2,39.4,14,39.3,14
				C39.4,14,39.3,14,39.3,14z"/>
			<path class="st0" d="M39.2,13.6c0-0.1,0-0.2-0.1-0.2c0,0.1-0.2,0.1-0.2,0.2c-0.1,0.1,0,0.2,0.1,0.2l0,0
				C39.2,14,39.4,13.8,39.2,13.6C39.3,13.6,39.3,13.6,39.2,13.6z"/>
			<path class="st0" d="M38.6,13c0.2,0.1,0,0.3,0.1,0.4c0.1,0.1,0.3,0.1,0.4,0s0-0.2-0.1-0.2c-0.1,0-0.1-0.1,0-0.2h-0.1
				c-0.1-0.1,0.1-0.2,0-0.3v-0.1c-0.1,0-0.1,0-0.1,0.1s0,0.1,0,0.2C38.6,12.8,38.5,12.9,38.6,13z"/>
			<path class="st0" d="M38.5,12.1c-0.1,0-0.2,0-0.3-0.1h-0.1l0,0c0,0.1-0.1,0.1,0,0.2s0.1,0.1,0.1,0.2c0,0.1,0.2,0,0.2,0.1
				s0.1,0.1,0.2,0.1c0.1,0,0-0.1,0-0.2c0,0,0-0.1-0.1,0C38.5,12.2,38.5,12.1,38.5,12.1z"/>
			<path class="st0" d="M29,18.3L29,18.3C29.1,18.3,29.1,18.3,29,18.3c0.1-0.1,0.1-0.2,0-0.2C29,18.1,28.9,18.2,29,18.3L29,18.3
				C28.9,18.3,28.9,18.3,29,18.3z"/>
			<path class="st0" d="M39.5,16.6c-0.2-0.1-0.4,0-0.5,0.1c-0.3,0.2-0.4,0.6-0.6,0.9c-0.1,0.2-0.3,0.2-0.5,0.2c0,0-0.1,0-0.1-0.1
				c0-0.1,0-0.2,0-0.3c0.1-0.1,0.1-0.1,0.2-0.2c0.1-0.2,0-0.3,0-0.5c-0.1-0.3-0.4-0.5-0.7-0.4c-0.3,0.1-0.5,0.4-0.6,0.6h-0.1
				c-0.1-0.1-0.3-0.2-0.3-0.4c0,0,0,0,0-0.1c0.1,0.1,0.2,0.2,0.4,0.2c0.1-0.1,0-0.2-0.1-0.3c-0.1,0-0.2-0.1-0.3-0.1
				s-0.2-0.1-0.2-0.2c0-0.2-0.1-0.4-0.2-0.4c-0.2-0.1-0.3-0.1-0.4-0.2c-0.1,0-0.2,0-0.2,0v-0.2c0.2,0,0.4,0,0.3-0.2
				c0-0.1-0.1-0.2-0.3-0.1c0,0-0.1,0-0.1,0.1c0,0,0,0.1-0.1,0.1c0,0.1,0.1,0.2,0,0.3c-0.1,0.1-0.3,0.1-0.4,0.2h-0.1
				c-0.1,0-0.3-0.2-0.4-0.1c-0.1,0.1-0.1,0.2-0.2,0.3c-0.1,0-0.2,0.1-0.3,0.1c-0.2,0.1-0.1,0.3,0,0.4c0,0.1,0,0.1,0,0.2
				c-0.1,0.1-0.1-0.1-0.2-0.1c0-0.2-0.1-0.3-0.1-0.5c0-0.2,0.2-0.3,0.2-0.4c0-0.1,0.1-0.2,0-0.3c-0.1-0.1-0.2-0.2-0.3-0.1
				c-0.3,0.1-0.4,0.6-0.7,0.5c-0.2-0.1-0.3-0.2-0.5-0.3c-0.1-0.1-0.2-0.1-0.3,0c-0.2,0.2-0.5,0.3-0.7,0.4s-0.4,0.3-0.5,0.5
				c-0.1,0.3-0.6,0.4-0.8,0.1c-0.1-0.2-0.2-0.3-0.4-0.3s-0.2,0.2-0.4,0.3c-0.1,0-0.2,0-0.3-0.1v-0.1c0.2-0.2,0.5-0.4,0.8-0.5
				c0.1,0,0.2-0.2,0.1-0.4v-0.1c0-0.1,0-0.2-0.1-0.2c-0.4,0-0.7,0.3-0.9,0.6c0,0,0,0.1-0.1,0.1c-0.2,0-0.5,0.1-0.7,0l-0.1-0.3
				c-0.1,0.1-0.2,0.2-0.2,0.3c0,0.1-0.1,0.1-0.1,0.1C27.8,16,28,16.1,28,16.3c0,0.1-0.3,0.1-0.4,0.1c-0.1,0-0.1,0.1-0.1,0.2
				c0,0.1,0.1,0.1,0.1,0.1c0.1,0.1,0.1,0.4,0.3,0.4c0.2,0.1,0.5,0,0.7,0.1c0.2,0,0.3,0.2,0.4,0.3c0,0.1,0.2,0.1,0.2,0.3l0.1,0.1
				c0.1,0,0.2-0.1,0.2,0c0.1,0,0.1,0.2,0.1,0.3c0.1,0.2,0,0.4,0.1,0.5c0.1,0.1-0.1,0.2-0.1,0.3c0,0-0.1,0-0.2,0.1
				c0,0.1,0,0.3,0.1,0.4c0.1,0.1,0.1,0,0.2,0c0.1,0.2,0.2,0.3,0.3,0.5c0,0.1,0.1,0.1,0.2,0.2c-0.1,0-0.1,0.1-0.1,0.1
				c0,0.1,0.2,0.1,0.2,0c0.1-0.1,0.2-0.1,0.3-0.2c0.1-0.1,0.1,0,0.2-0.1c0.1,0.1,0.1,0.2,0.1,0.2c-0.1,0.1-0.4,0-0.5,0.1
				c-0.1,0-0.2,0-0.3,0.1c-0.1,0.1,0,0.2,0.1,0.2c0.3,0.1,0.1,0.5-0.1,0.8c0,0.1,0,0.1,0,0.2l-0.1,0.1c-0.3,0-0.6-0.1-0.9,0
				c-0.1,0-0.1,0.2-0.2,0.3c0,0,0,0,0.1,0c-0.1,0-0.1,0.1-0.1,0.1c0,0.1,0,0.2,0,0.2c-0.3,0.3-0.3,0.7-0.4,1.1
				c0,0.1,0.1,0.2,0.2,0.2c0.1,0,0.2-0.1,0.3-0.1s0.1,0.2,0.2,0.3c0.1,0.1,0.3,0.1,0.3,0c0-0.1,0-0.3,0.1-0.4c0-0.2-0.1-0.3-0.1-0.4
				c0-0.1,0-0.3,0.1-0.3c0.1-0.1,0.1,0,0.2,0.1c0,0.1,0,0.2,0.1,0.3c0,0.1,0,0.2,0,0.3c0.1,0.1,0.1,0.2,0.1,0.2l-0.1,0.1
				c0,0.1,0,0.3-0.1,0.3c-0.1,0.1-0.1,0.2-0.2,0.2c-0.3,0-0.6-0.1-0.5-0.4c-0.1,0-0.2,0-0.3,0.1c-0.1,0.1,0,0.3-0.1,0.4
				c-0.1,0.1-0.2,0.2-0.3,0.4c0,0,0,0,0,0.1c-0.1,0.2-0.3,0.2-0.5,0.3l0,0c-0.1,0.1-0.3,0-0.3,0.1c-0.1,0.1,0.1,0.2,0.2,0.4
				c0,0.1,0,0.2-0.1,0.2c-0.2,0-0.3,0-0.5,0c0,0.1,0,0,0,0.1c0,0.2,0,0.3-0.1,0.4c-0.1,0.1,0,0.2,0.1,0.3c0.1,0.1,0.1,0.3,0.2,0.3
				c0.1,0,0.1,0.1,0.2,0.1c0.2,0,0.3-0.1,0.3-0.3c0-0.1,0.2,0,0.3,0h0.1c0.1-0.1,0-0.2,0-0.3c0.2-0.2,0.4-0.4,0.6-0.5
				c0.1-0.1,0.2-0.1,0.3-0.1c0.1,0,0.2,0.1,0.3,0.1s0.2,0.1,0.2,0.2c0,0,0.1,0,0.1,0.1c0.1,0.1,0.2,0.2,0.4,0.3c0,0,0-0.1,0.1,0
				c0-0.1,0-0.3-0.1-0.4c-0.1-0.1-0.3-0.2-0.4-0.3c0,0,0-0.1,0-0.2h0.1c0.1,0.1,0.2,0.1,0.3,0.1c0.2,0.1,0.1,0.3,0.3,0.4
				c0.1,0,0.1,0.2,0.3,0.2c0.1,0,0.3,0,0.4-0.2c0.1-0.1-0.1-0.1-0.1-0.2c-0.1-0.1,0.1-0.1,0.1-0.2c0.1-0.1,0-0.3,0-0.4
				c0-0.1,0-0.1,0.1-0.1l0,0c0.1-0.2,0-0.3,0.1-0.5h0.1c0,0.1,0.1,0.1,0.2,0.1c0.1,0,0.2-0.1,0.3-0.2c0.1-0.1,0.4-0.1,0.4,0.1
				c0,0.1,0,0.3-0.1,0.3c-0.3,0-0.5,0.1-0.7,0.3c0,0-0.1,0-0.1,0.1c-0.1,0.1-0.2,0.2-0.1,0.3c0,0.1-0.1,0.1-0.1,0.2
				c0.1,0,0.1,0.2,0.2,0.2c0.2,0,0.3,0,0.5-0.1c0,0,0.1-0.1,0-0.2c0.1,0,0.2-0.1,0.3-0.2c0.3,0,0.4,0.2,0.3,0.5c0,0-0.1,0-0.1,0.1
				c-0.1,0.2-0.2,0.4-0.4,0.5c-0.3,0.2-0.7,0.1-1,0.3c-0.1,0.1-0.1,0.3-0.3,0.3c-0.1,0-0.3,0.1-0.5,0l0,0c0,0.1-0.3,0-0.5,0
				c-0.1,0,0-0.2-0.1-0.2c-0.1,0-0.2,0-0.2,0v-0.1c-0.4-0.1-0.7,0-1.1,0c-0.1,0-0.1,0.1-0.2,0.2c-0.1,0-0.1,0.1-0.2,0.1
				c-0.1,0.1-0.3,0.2-0.5,0.1c-0.2,0-0.3,0.1-0.4,0.1c-0.2,0-0.4,0.2-0.6,0.4c-0.1,0.1-0.3,0.1-0.5,0.1c0,0,0,0.1-0.1,0.1
				c-0.3,0.1-0.5,0.4-0.6,0.7c0,0.1,0,0.2,0,0.2c-0.1,0.2-0.2,0.4-0.4,0.6v0.1c0.2,0.3,0.4,0.5,0.7,0.8c0,0.1,0.2,0.1,0.2,0.2
				c0.1,0.2,0.2,0.3,0.3,0.5c0.1,0.2,0.5,0.3,0.8,0.2c0.1,0,0.2,0.1,0.3,0.1c0.3,0,0.7,0.1,1-0.1c0.5,0.1,1-0.1,1.3,0.1
				c0.1,0,0.1,0.2,0.1,0.3c0.1,0.2,0.2,0.4,0.4,0.5c0.2,0.1,0.4,0.2,0.6,0.2c0.1,0,0.1,0.1,0.1,0.2c0.1,0.1,0,0.2,0.1,0.3
				c0.1,0.1,0.2,0.2,0.2,0.3c0,0.2-0.2,0.3-0.1,0.5c0,0.1,0,0.2,0,0.2c0.3,0.3,0.5,0.5,0.9,0.8l0.1,0.1c0.1,0,0.1,0.2,0.2,0.2
				c0.1,0.1,0,0.2,0.1,0.3c0.1,0.1,0.2,0.3,0.4,0.4c0.2,0.2,0.4,0.1,0.6,0.2c0,0,0.1,0.1,0.2,0.1c0.2,0.1,0.4,0.1,0.6,0
				c0.1-0.1,0.2-0.2,0.3-0.3c0.1-0.1,0.4-0.1,0.6-0.1c0,0,0.1,0,0.1-0.1s0.1-0.2,0.1-0.3c0.1,0,0.3-0.1,0.4-0.1
				c0.2-0.1,0.4-0.4,0.6-0.6c0.2-0.2,0.6-0.1,0.7-0.4c0.1-0.2,0-0.5,0.1-0.8c0.1-0.1,0.1-0.3,0.2-0.4c0-0.2,0-0.5,0-0.7
				c0-0.1-0.2-0.3-0.1-0.4c0-0.1,0.2-0.1,0.2-0.2c0.1-0.2,0.2-0.4,0.3-0.6l0.1-0.1c0.1-0.1,0-0.2,0-0.2c-0.1,0-0.1-0.1-0.1-0.1
				c-0.2-0.3-0.4-0.6-0.7-0.7c-0.1,0-0.1-0.1-0.1-0.2v-0.1c-0.1,0-0.1-0.1-0.1-0.2h0.1l0,0l0,0c0.1-0.2,0.2-0.4,0.3-0.5
				c0,0,0.2,0,0.2-0.1c0-0.2,0-0.3,0-0.5c-0.1-0.2,0-0.4,0-0.6c0-0.4,0-0.7-0.2-1.1c0-0.1-0.1-0.2-0.3-0.2c-0.1,0-0.1,0.1-0.1,0.2
				c0,0.1-0.1,0.1-0.1,0.2c-0.1,0.1-0.2,0.2-0.3,0.3c0,0.1,0,0.2-0.1,0.2c-0.1,0.1-0.1,0.2-0.2,0.2s-0.3,0.1-0.4,0.1s-0.3,0-0.5,0
				c-0.8-0.2-1.4-0.5-2.2-0.8v-0.1c0.1-0.1,0.3,0,0.4,0s0-0.1,0-0.1c0.2,0,0.3,0.2,0.5,0.2c0.3,0.1,0.7,0.1,1,0.2
				c0.3,0.1,0.5,0.3,0.7,0.3c0.2,0.1,0.4-0.1,0.5-0.2v-0.1c0.1-0.1,0.2-0.2,0.3-0.4c0-0.1,0-0.2,0-0.4c0-0.1,0.1-0.1,0.1-0.2
				c0-0.2,0-0.4,0-0.5c0.1,0,0.2-0.1,0.1-0.1V25c0-0.1,0-0.2,0-0.3c0.1-0.3,0-0.5-0.1-0.7C35.8,24,35.7,24,35.7,24l-0.1,0.1
				c-0.1,0-0.2,0.1-0.3,0.1c-0.1,0.1-0.1,0.3-0.2,0.3c-0.2,0.1-0.3,0.3-0.5,0.3c-0.1,0.1-0.3,0-0.3-0.1c-0.1-0.3,0.3-0.3,0.5-0.3
				l0.1-0.1C35,24.2,35,24,35.1,24c0.1,0,0.2,0,0.3,0c0.1,0,0.1-0.1,0.2-0.1c0.1,0,0.1-0.2,0.1-0.2c0-0.1,0.2-0.2,0.3-0.3
				c0.1-0.3,0.1-0.6,0.3-0.8c0.1-0.1,0.1,0.2,0.1,0.2c0.1,0.1,0.3,0.1,0.4,0c0.1-0.1,0-0.3,0.1-0.3s0.1,0,0.2,0
				c0.1,0.1,0.2,0.2,0.3,0.1c0.1,0,0.1-0.1,0.2-0.2c0.1,0,0.2,0,0.4-0.1c0.3-0.1,0.9,0.1,0.9-0.2c-0.1-0.5-0.4-0.8-0.8-1
				c-0.3-0.2-0.2-0.6-0.5-0.9c-0.1-0.1,0-0.2-0.1-0.2l-0.1-0.1L37.2,20c0-0.2-0.1-0.5,0.1-0.7c0.1-0.1,0.2-0.1,0.3-0.2
				c0.1-0.1,0.3-0.1,0.3-0.3c0-0.2,0-0.4,0-0.6c0-0.1,0.1-0.1,0.2-0.1c0.3,0,0.7,0.1,1-0.1c0.1-0.1,0.1-0.2,0.1-0.2
				c0.2-0.4,0.6-0.6,0.6-1.1c0-0.1,0.1-0.1,0.2-0.2C39.5,16.7,39.5,16.6,39.5,16.6z M33.4,23.9C33.4,24,33.4,24,33.4,23.9
				c-0.1,0.1-0.2,0.1-0.2,0s-0.1-0.2-0.2-0.2s-0.2,0-0.2,0.1c-0.1-0.1-0.2,0-0.3,0c0-0.1-0.1-0.1-0.2-0.2c-0.1-0.1-0.1-0.2,0.1-0.3
				c0.1,0,0.2,0,0.2,0.1l0,0v0.1c0.1,0.1,0.2,0,0.3,0c0.1,0.1,0.3,0,0.4,0v0.1C33.4,23.7,33.5,23.8,33.4,23.9
				C33.4,23.9,33.4,24,33.4,23.9z"/>
			<g>
				<path class="st0" d="M20.8,47.5c1.7-2.6,7-5.4,12.1-5.4s10.8,3,13,1.4c0,0-2.3,1.9-6.8,1.9c-4.6,0-6.3-2.3-9.5-2.3
					c-3.2,0-6.5,2.6-7.9,4.7L20.8,47.5z"/>
				<path class="st0" d="M37.1,41.8c0,0,1.5-0.9,2.3-2.6c0.8-1.6,2.9-4.3,5-5.9c0,0-2.4,7.5-4.8,7.7c0,0-0.4,0.2,0.3,0.1
					c0.7-0.1,3.8-1.2,4.9-1.4c1.1-0.2,3.7-0.8,4.5-1.5c0.6-0.6,1.1-0.5,1.1-0.5s-3,5-8.3,5C42,42.6,39.3,42.4,37.1,41.8z"/>
				<path class="st0" d="M43.5,39.2c0,0,0.6-0.9,0.7-2.4c0.1-1.4,1.1-4.9,3.6-8.6c0,0,0.4,5.8-2.6,9.5c0,0-0.2,0.5,0.2,0.1
					s2.2-2.6,6.2-5.3c0,0,2.1-1.7,2.2-2.3C53.8,30.3,52.2,38.6,43.5,39.2z"/>
				<path class="st0" d="M48.6,33.6c0,0,0.2-1,0.2-1.7c0-0.8-0.4-3.5-0.4-4.8c0-1.2,0.1-3.4,1.1-5c0,0,0,1.3,0.3,1.9
					c0.3,0.6,0.7,3.1,0.7,3.3c0,0.3-0.1,2.4-0.6,3.4c0,0,0.4-0.2,0.8-1.1c0.4-0.8,1.4-2.3,3-3.8c1.5-1.5,1.9-3,1.9-3
					s0.4,2.7-1.6,5.5c-2,2.9-2.9,2.4-3.9,3.5C49.9,32.2,48.6,33.7,48.6,33.6z"/>
				<path class="st0" d="M51.6,27c0,0-0.1-1.6-0.4-2.2c-0.3-0.6-2.1-3.8-1.7-8c0,0,0.3-0.3,0.9,1.3c0.6,1.6,1.3,2.1,1.6,3.7
					c0.3,1.6,0.3,2.3,0.3,2.3s0.2,0.2,0.2,0s0.2-2.4,1.1-4.4c0.9-2,2.1-3.9,2-5.3c0,0,0.6,0,0.5,2.2C55.9,19.1,55.3,22.8,51.6,27z"
					/>
				<path class="st0" d="M52.7,20.4c0,0-0.7-1.5-1.1-2c-0.5-0.5-3.6-5.1-3.8-7.2c0,0,0.3-0.1,0.6,0.4c0.3,0.6,1.8,2,2.1,2.3
					c0.3,0.2,1.8,1.9,2,3.7c0,0,0.2,0.2-0.2-2.9c-0.3-3.1,1-5-0.1-7.1c0,0,1.4,0.2,2.3,6.4c0,0,0,2.2-1.1,4.9
					C53.2,19.1,52.9,20.4,52.7,20.4z"/>
				<path class="st0" d="M51.5,13.7c0,0-1.1-1.2-2.1-1.8c-1-0.6-3.9-3.4-4.4-5.7c0,0,0.2-0.3,1.1,1c0.8,1,1.4,0.5,3.6,3.2
					c0,0,0.3,0.6,0.5,0.6c0.2,0-0.1-0.7-0.1-0.7s-0.5-1.6-0.6-2.3c0-0.6-0.9-3.8-1.2-4.2c0,0,2.9,1.6,3.3,6.3
					C51.8,10,51.6,13.5,51.5,13.7z"/>
				<path class="st0" d="M49,8.7c0,0,0.2-4.1-5.2-6.1c0,0,1.9,3.8,3.2,4.7S49,8.7,49,8.7z"/>
			</g>
		</g>
		<g>
			<path class="st0" d="M35.3,47.5c-1.7-2.6-7-5.4-12.1-5.4s-10.8,3-13,1.4c0,0,2.3,1.9,6.9,1.9s6.3-2.3,9.5-2.3s6.5,2.6,7.9,4.7
				L35.3,47.5z"/>
			<path class="st0" d="M18.9,41.8c0,0-1.5-0.9-2.3-2.6c-0.8-1.6-2.9-4.3-5-5.9c0,0,2.3,7.5,4.8,7.7c0,0,0.4,0.2-0.3,0.1
				c-0.7-0.1-3.8-1.2-4.9-1.4c-1.1-0.2-3.8-0.8-4.5-1.5c-0.7-0.6-1.1-0.5-1.1-0.5s3,5,8.3,5C14.1,42.6,16.7,42.4,18.9,41.8z"/>
			<path class="st0" d="M12.5,39.2c0,0-0.6-0.9-0.7-2.4c-0.1-1.4-1.1-4.9-3.6-8.6c0,0-0.4,5.8,2.5,9.5c0,0,0.2,0.5-0.2,0.1
				c-0.4-0.4-2.2-2.6-6.2-5.3c0,0-2.1-1.7-2.2-2.3C2.3,30.3,3.9,38.6,12.5,39.2z"/>
			<path class="st0" d="M7.6,33.6c0,0-0.2-1-0.2-1.7c0-0.8,0.4-3.5,0.4-4.8c0-1.2-0.1-3.4-1.1-5c0,0,0,1.3-0.3,1.9
				c-0.3,0.6-0.7,3.1-0.7,3.3c0,0.3,0.1,2.4,0.6,3.4c0,0-0.4-0.2-0.8-1.1c-0.4-0.8-1.4-2.3-3-3.8c-1.5-1.5-1.9-3-1.9-3
				s-0.5,2.8,1.5,5.6s2.9,2.4,3.9,3.5C6.1,32.2,7.4,33.7,7.6,33.6z"/>
			<path class="st0" d="M4.4,27c0,0,0.1-1.6,0.4-2.2s2.1-3.8,1.7-8c0,0-0.3-0.3-0.9,1.3c-0.6,1.6-1.3,2.1-1.6,3.7
				c-0.3,1.6-0.3,2.3-0.3,2.3s-0.2,0.2-0.2,0s-0.2-2.4-1.1-4.4s-2.1-3.9-2-5.3c0,0-0.6,0-0.5,2.2C0.1,19.1,0.7,22.8,4.4,27z"/>
			<path class="st0" d="M3.5,20.4c0,0,0.7-1.5,1.1-2c0.5-0.5,3.5-5.1,3.8-7.2c0,0-0.3-0.1-0.6,0.4c-0.3,0.6-1.8,2-2.1,2.3
				c-0.3,0.2-1.8,1.9-2,3.7c0,0-0.1,0.2,0.2-2.9c0.3-3.1-1-5,0.1-7.1c0,0-1.4,0.2-2.3,6.4c0,0,0,2.2,1.1,4.9
				C2.9,19.1,3.3,20.4,3.5,20.4z"/>
			<path class="st0" d="M4.6,13.7c0,0,1.1-1.2,2.1-1.8c1-0.6,3.9-3.4,4.4-5.7c0,0-0.2-0.3-1.1,1c-0.8,1-1.4,0.5-3.6,3.2
				c0,0-0.3,0.6-0.5,0.6c-0.2,0,0.1-0.7,0.1-0.7s0.5-1.6,0.5-2.3c0-0.6,1-3.8,1.2-4.2c0,0-3,1.6-3.3,6.3C4.3,10,4.4,13.5,4.6,13.7z"
				/>
			<path class="st0" d="M7.1,8.7c0,0-0.2-4.1,5.2-6.1c0,0-1.8,3.8-3.2,4.7S7.1,8.7,7.1,8.7z"/>
		</g>
	</g>
</g>
</svg>
