<?xml version="1.0" encoding="utf-8"?>
<!-- Generator: Adobe Illustrator 21.0.0, SVG Export Plug-In . SVG Version: 6.00 Build 0)  -->
<svg version="1.1" id="Layer_1" xmlns="http://www.w3.org/2000/svg" xmlns:xlink="http://www.w3.org/1999/xlink" x="0px" y="0px"
	 viewBox="0 0 96.7 31.7" style="enable-background:new 0 0 96.7 31.7;" xml:space="preserve">
<style type="text/css">
	.st0{fill:#026CB6;}
	.st1{fill-rule:evenodd;clip-rule:evenodd;fill:#026CB6;}
</style>
<g>
	<g>
		<g>
			<path class="st0" d="M44.2,2.5v3.2c0,0.7,0.3,1.5,1.3,1.5c1,0,1.3-0.8,1.3-1.5V2.5h0.7v3.3c0,1.2-0.9,2.1-2,2.1
				c-1.1,0-2-0.8-2-2.1V2.5H44.2z"/>
			<path class="st0" d="M48.8,4.2h0.7v0.5h0c0.2-0.4,0.6-0.6,1.2-0.6c0.7,0,1.3,0.4,1.3,1.3v2.3h-0.7V5.7c0-0.7-0.4-0.9-0.8-0.9
				c-0.6,0-1,0.4-1,1.2v1.8h-0.7V4.2z"/>
			<path class="st0" d="M53.5,2.5C53.7,2.5,54,2.7,54,3s-0.2,0.5-0.5,0.5C53.2,3.4,53,3.2,53,3S53.2,2.5,53.5,2.5z M53.1,4.2h0.7
				v3.5h-0.7V4.2z"/>
			<path class="st0" d="M57,4.8h-1v1.6c0,0.4,0,0.8,0.5,0.8c0.2,0,0.3,0,0.5-0.1v0.6c-0.2,0.1-0.5,0.1-0.6,0.1c-1,0-1-0.6-1-1.2V4.8
				h-0.8V4.2h0.8v-1H56v1h1V4.8z"/>
			<path class="st0" d="M58.4,6.2c0,0.6,0.6,1,1.2,1c0.4,0,0.7-0.2,1-0.5L61,7.1c-0.4,0.5-0.9,0.7-1.6,0.7c-1.1,0-1.8-0.8-1.8-1.8
				c0-1.1,0.8-1.8,1.8-1.8c1.2,0,1.7,0.9,1.7,1.9v0.2H58.4z M60.5,5.7c0-0.6-0.3-1-1-1c-0.7,0-1.1,0.6-1.1,1H60.5z"/>
			<path class="st0" d="M65.7,7.7H65V7.2h0c-0.3,0.4-0.7,0.6-1.2,0.6C62.7,7.8,62,7,62,6c0-1.1,0.7-1.8,1.8-1.8c0.5,0,1,0.2,1.2,0.6
				h0V2.1h0.7V7.7z M65,6c0-0.7-0.4-1.2-1.2-1.2c-0.7,0-1.2,0.5-1.2,1.2c0,0.7,0.4,1.2,1.2,1.2C64.6,7.2,65,6.7,65,6z"/>
			<path class="st0" d="M70.6,2.5h0.9l2.9,4.3h0V2.5h0.7v5.2h-0.9l-2.9-4.3h0v4.3h-0.7V2.5z"/>
			<path class="st0" d="M76.5,4.6c0.4-0.3,0.9-0.5,1.4-0.5c1,0,1.5,0.6,1.5,1.2v1.8c0,0.2,0,0.5,0,0.6h-0.6c0-0.2,0-0.4,0-0.5h0
				c-0.3,0.5-0.7,0.6-1.2,0.6c-0.7,0-1.2-0.4-1.2-1.1c0-0.9,0.9-1.2,1.9-1.2h0.5V5.4c0-0.4-0.3-0.7-0.8-0.7c-0.5,0-0.8,0.2-1,0.4
				L76.5,4.6z M78.3,6c-0.6,0-1.4,0.1-1.4,0.7c0,0.4,0.3,0.6,0.8,0.6c0.7,0,1-0.5,1-1V6H78.3z"/>
			<path class="st0" d="M82.4,4.8h-1v1.6c0,0.4,0,0.8,0.5,0.8c0.2,0,0.3,0,0.5-0.1v0.6c-0.2,0.1-0.5,0.1-0.6,0.1c-1,0-1-0.6-1-1.2
				V4.8H80V4.2h0.8v-1h0.7v1h1V4.8z"/>
			<path class="st0" d="M83.7,2.5c0.3,0,0.5,0.2,0.5,0.5S84,3.4,83.7,3.4S83.2,3.2,83.2,3S83.4,2.5,83.7,2.5z M83.4,4.2H84v3.5h-0.7
				V4.2z"/>
			<path class="st0" d="M86.9,4.1c1,0,1.9,0.8,1.9,1.8c0,1-0.8,1.8-1.9,1.8S85.1,7,85.1,6C85.1,5,85.9,4.1,86.9,4.1z M86.9,7.2
				c0.7,0,1.2-0.5,1.2-1.2c0-0.7-0.4-1.2-1.2-1.2c-0.7,0-1.2,0.5-1.2,1.2C85.8,6.7,86.2,7.2,86.9,7.2z"/>
			<path class="st0" d="M89.8,4.2h0.7v0.5h0c0.2-0.4,0.6-0.6,1.2-0.6c0.7,0,1.3,0.4,1.3,1.3v2.3h-0.7V5.7c0-0.7-0.4-0.9-0.8-0.9
				c-0.6,0-1,0.4-1,1.2v1.8h-0.7V4.2z"/>
			<path class="st0" d="M96,5.1c-0.2-0.2-0.4-0.3-0.7-0.3c-0.3,0-0.6,0.1-0.6,0.4c0,0.4,0.6,0.5,0.9,0.5c0.6,0.1,1,0.4,1,1
				c0,0.8-0.7,1.1-1.4,1.1c-0.6,0-1-0.1-1.4-0.6l0.5-0.4c0.2,0.2,0.5,0.4,0.9,0.4c0.3,0,0.7-0.1,0.7-0.4c0-0.4-0.6-0.5-0.8-0.5
				c-0.6-0.1-1.1-0.3-1.1-1c0-0.7,0.7-1.1,1.3-1.1c0.5,0,0.9,0.2,1.2,0.6L96,5.1z"/>
			<path class="st0" d="M54.4,16.3c-0.9-1.2-2.4-1.8-3.8-1.8c-3.5,0-5.9,2.8-5.9,6.4c0,3.3,2.2,6.1,5.9,6.1c1.8,0,3.2-0.8,4.1-2.1
				l1.8,1.4c-0.5,0.6-2.4,2.8-6,2.8c-5,0-8.1-4.2-8.1-8.1c0-4.9,3.4-8.4,8.2-8.4c2.1,0,4.2,0.8,5.5,2.4L54.4,16.3z"/>
			<path class="st0" d="M59.2,12.9h10.2v2h-8v4.7h7.5v2h-7.5v5h8.4v2H59.2V12.9z"/>
			<path class="st0" d="M72.9,12.9h5.5c4,0,5,2.4,5,4.4c0,2-1.5,3.9-3.9,4.2l4.5,7.2h-2.7l-4-6.9H75v6.9h-2.1V12.9z M75,19.9h2.8
				c1.7,0,3.4-0.4,3.4-2.5c0-2.1-1.7-2.5-3.4-2.5H75V19.9z"/>
			<path class="st0" d="M86.8,12.9h9.9v2H89v4.9h7.2v2H89v6.8h-2.1V12.9z"/>
		</g>
	</g>
	<g>
		<path class="st1" d="M21.4,16.5c-0.2-0.1-0.3,0.1-0.3,0.1l-0.2,0.2c0,0-0.1,0.1,0,0.1c0,0,0.2-0.1,0.2-0.1l0.2-0.1l0.1-0.1
			C21.4,16.6,21.5,16.5,21.4,16.5 M27,13.6c0,0.4-0.1,0.7-0.1,1.1c0,0.1,0.3,0.3,0.3,0.4c0,0.1-0.2,0.3-0.3,0.2
			c0-0.1-0.1-0.1-0.1-0.1c-0.3,1.3-1,2.5-1.9,3.5l0.7,0.7c0-0.1,0-0.1,0-0.2c0-0.2,0-0.3,0.1-0.3c0,0,0.3,0,0.4,0.3
			c0,0.1,0.1,0,0.1,0.2c0,0.1,0,0.3,0,0.3s0,0.1,0.1,0.2c0,0.1,0,0.1,0,0.2c1.6-1.7,2.6-3.9,2.7-6.4H27z M24.6,21.4
			c0.4-0.3,0.7-0.5,1.1-0.9l-0.1-0.1c-0.1,0-0.1,0-0.2,0c0,0-0.1-0.1-0.1-0.2l-1-1c-0.1,0.1-0.2,0.2-0.2,0.2l0,0.2
			c0.6,0.3,0.8,0.6,0.8,0.7c0,0.1-0.4,0.5-0.4,0.6C24.5,21.1,24.6,21.2,24.6,21.4C24.6,21.4,24.6,21.4,24.6,21.4z M19.3,21.5v1.7
			c0.5,0,1-0.1,1.5-0.2c-0.3-0.2-0.4-0.2-0.5-0.3c-0.1-0.1-0.2-0.2-0.3-0.5c-0.1-0.3,0.2-0.3,0.1-0.5c-0.1-0.2-0.7-0.1-0.7-0.1
			S19.5,21.7,19.3,21.5z M18.5,21.3c-1.9-0.1-3.6-0.8-5-1.9c0.1,0.1,0.2,0.2,0.2,0.2c0.4,0.3,0.4,0.5,0.4,0.7c0,0.2-0.9,0.2-0.9,0.2
			l0,0c-0.3,0.1-0.7,0.2-0.9,0.2c-0.1,0-0.2-0.1-0.2-0.1l-0.1,0.1c1.7,1.5,4,2.5,6.4,2.6V21.3z M10.8,14.3c0-0.2-0.1-0.5-0.1-0.7
			H8.8c0,0.9,0.2,1.8,0.5,2.7c0,0,0,0,0,0c0.1,0,0-0.1,0-0.2c0-0.1,0.1,0,0.2-0.1c0-0.1,0-0.1,0-0.2c0-0.1,0.1-0.1,0.1-0.2
			c0-0.1,0,0-0.1-0.1c0-0.2,0.1-0.3,0.1-0.4c0,0,0.1-0.2,0.1-0.3c0.1-0.2,0.4-0.3,0.5-0.4c0,0,0.1-0.2,0.3-0.3
			C10.6,14.3,10.7,14.3,10.8,14.3z M10.7,12.9c0.1-2,0.9-3.8,2.2-5.1l-1.3-1.3c-1.6,1.7-2.7,4-2.7,6.5H10.7z M13.4,7.3
			c1.4-1.2,3.2-2,5.1-2.1V3.4C16,3.4,13.8,4.4,12.1,6L13.4,7.3z M19.3,5.2c1.5,0.1,2.9,0.6,4.1,1.3c-0.1-0.1-0.1-0.2-0.1-0.3
			c0-0.1,0.1-0.1,0.1-0.1c-0.2-0.3-0.3-0.4-0.2-0.5c0.1-0.1,0.3,0.1,0.4,0.3c0.1,0.2,0.3,0.4,0.4,0.4c0.1,0,0.3,0,0.3,0.2
			c0,0.2,0.1,0.2,0.2,0.5c0,0,0,0.1,0,0.1L25,6.6c0-0.1-0.1-0.3-0.3-0.3l-0.4,0.1c0,0-0.1,0.1-0.2,0c0-0.1,0-0.3,0-0.3
			S23.9,6,23.9,5.9c0-0.1,0.1-0.3,0-0.4c-0.1-0.1-0.2-0.2-0.2-0.2S23.7,5,23.7,4.8c-0.1-0.1-0.4-0.4-0.4-0.4s0,0,0-0.1
			c-1.2-0.6-2.6-0.9-4-1V5.2z M24.9,7.8C25,7.9,25,8,25.1,8c0.1,0.2,0.3,0.3,0.4,0.5c0.1,0.1,0.1,0.2,0.2,0.3c0.1,0,0.1-0.1,0.2-0.1
			c0.1-0.1,0.2,0,0.2,0.2C26.1,9,25.9,9,26,9.1c0,0.1,0.3,0,0.3,0c0,0,0.1,0.1,0,0.2c-0.1,0.1-0.1,0.1-0.1,0.1c0,0,0.1,0.1,0.1,0.1
			c0.1,0,0.3,0,0.3,0.1c0,0.2,0.2,0.3,0.2,0.5c0,0.1,0,0.2-0.1,0.3c0.1,0.2,0.1,0.4,0.2,0.6c0.1,0,0.1-0.1,0.2,0c0,0,0,0,0,0
			s0,0.2,0,0.3c0,0.1,0,0.2,0,0.3c0,0.1,0,0.2,0.1,0.3c0,0.1,0.1,0.3,0.1,0.4l0,0c0,0.2,0,0.3,0,0.5h1.9c0-1.3-0.3-2.5-0.8-3.5
			c0,0-0.1,0-0.1,0c0,0-0.2,0.1-0.3,0.1c-0.1,0-0.2-0.2-0.2-0.2S27,8.6,27,8.6c0,0-0.1-0.1-0.3-0.1c-0.2,0-0.2-0.1-0.2-0.1
			S26.2,8.2,26,8.1l-0.2-0.3c0,0,0-0.1,0-0.1c0,0-0.4,0-0.4,0s-0.2-0.1-0.2-0.2L24.9,7.8C24.9,7.8,24.9,7.8,24.9,7.8z M32.3,13.3
			c0,7.3-6,13.3-13.5,13.3c-7.4,0-13.5-5.9-13.5-13.3C5.4,5.9,11.4,0,18.9,0C26.3,0,32.3,5.9,32.3,13.3z M18.9,11L18.9,11
			c-0.2,0-0.4,0-0.5,0c0,0,0.1,0,0.1,0.1c0,0.1,0.1,0.4,0.1,0.4c-0.2,0.3-0.8,0.4-0.8,0.4c-0.1,0.1-0.1,0.2-0.2,0.3
			c-0.1,0.1-0.2,0.1-0.3,0.2c-0.1,0.1-0.1,0.2-0.1,0.3c0,0.1,0.1,0.2,0,0.3c0,0.1-0.1,0.3-0.1,0.4c-0.1,0.1-0.2,0-0.2-0.1
			c-0.1,0-0.1-0.4-0.2-0.4c0,0,0,0,0,0c0,0.1,0,0.1,0,0.2c0,0.2,0,0.3,0,0.5c0.1,0,0.1-0.1,0.1-0.1c0.2,0,0.1,0.1,0.2,0.1
			c0.1,0,0.2,0,0.2-0.3c0-0.2,0.2-0.2,0.3-0.2c0.1,0,0,0.2,0,0.2c0,0,0.1,0,0.1,0.1c0,0.1-0.2,0.3-0.3,0.5c0,0.2-0.1,0.2-0.2,0.2
			c-0.1,0-0.1-0.2-0.2-0.1c0,0.1,0.1,0.3,0.1,0.3c0.1-0.1,0.2-0.2,0.2-0.3c0-0.1,0.1-0.1,0.2-0.1c0.1-0.1,0.1-0.4,0.1-0.4
			c0-0.1,0.1-0.1,0.6-0.1c0.5,0,0.5,0.1,0.4,0.3c0,0.1,0.1,0,0.1,0.1c0,0.2-0.2,0.3-0.2,0.4c-0.1,0.1,0.1,0.1,0,0.2
			c-0.1,0.1-0.1,0.1-0.1,0.1c-0.3,0.3-0.3,0.1-0.5,0.2c-0.2,0.1-0.4,0-0.4,0c0,0-0.1,0-0.1,0c0.4,0.3,0.8,0.4,1.4,0.4
			c0.1,0,0.2,0,0.3,0c0.1-0.3,0.1-0.7,0.3-0.8c0.2-0.1,0.5,0.1,0.6,0c0.1-0.1,0.1-0.2,0.2-0.2c0-0.1,0.1-0.3,0.1-0.4
			c-0.1-0.1-0.2-0.1-0.2-0.2c0-0.1,0.2-0.1,0.1-0.2c-0.2-0.2-0.1-0.4-0.2-0.4c-0.1-0.1-0.1,0-0.2-0.1c-0.1-0.1,0-0.2,0-0.3
			c0-0.1,0.2-0.1,0.2-0.2c0-0.1-0.1,0-0.1-0.1c0-0.1,0.1-0.3,0.1-0.3s-0.3,0-0.3-0.1c0-0.1-0.2-0.3-0.4-0.4c-0.2-0.1-0.5,0-0.5,0
			c0-0.1-0.3-0.3-0.3-0.3c-0.2-0.2-0.1-0.2,0-0.3C18.7,11,18.9,11.1,18.9,11C18.9,11.1,18.9,11,18.9,11z M26.7,6
			c0.4,0.4,0.8,0.9,1.2,1.4c0.1,0.1,0.3,0.3,0.3,0.4c0,0.1,0,0.1,0,0.1c0,0,0.1,0.1,0.1,0.1c0,0,0,0,0,0c0.1,0.2,0.2,0.2,0.3,0.4
			c0,0.1,0.1,0.2,0.1,0.3c0.6,1.3,0.9,2.7,1,4.1h1.9c-0.1-3.2-1.4-6.1-3.5-8.3L26.7,6z M19.5,2.6c1.6,0.1,3.1,0.5,4.4,1.2l0.4-0.2
			c0,0-0.1,0,0.1,0c0.2,0,0.1,0,0.3,0.1c0.2,0.1,0.2,0,0.3,0c0.1,0,0.1,0.2,0.2,0.3c0.1,0.1,0.1,0,0.2,0.1c0.1,0.1,0.3,0.3,0.4,0.4
			c0,0.1,0.1,0,0.2,0.4c0,0,0.2,0.2,0.3,0.3l1.2-1.2c-2.2-2-5.1-3.3-8.3-3.4v1.6c0,0,0,0,0.1,0c0.1,0.1,0.2,0.1,0.2,0.2
			C19.5,2.6,19.5,2.6,19.5,2.6z M11.6,5.4c1.8-1.7,4.3-2.7,7-2.8V0.7c-3.2,0.1-6.1,1.3-8.3,3.3L11.6,5.4z M8.1,12.9
			c0.1-2.7,1.2-5.1,3-7L9.7,4.6c-2.1,2.2-3.4,5.1-3.5,8.3H8.1z M11.1,20.6c-0.2-0.2-0.5-0.5-0.7-0.8c-0.2-0.1-0.2-0.1-0.4-0.3
			c-0.2-0.2-0.1-0.3-0.2-0.4c0,0,0,0.1-0.1,0.1c0,0-0.1,0-0.2,0c-0.1,0-0.2-0.2-0.2-0.2c-0.2-0.2-0.2-0.4-0.2-0.4c0-0.1-0.2,0-0.2,0
			c-0.1,0-0.1-0.1-0.1-0.2c-0.1,0-0.2,0-0.2,0c0-0.1-0.2-0.4-0.3-0.4c0,0,0,0.2-0.2,0.2c-0.2,0-0.4-0.4-0.5-0.4
			c-0.1,0-0.1,0.1-0.2,0c-0.1-0.1-0.2-0.4-0.2-0.5c0-0.1-0.1-0.2-0.1-0.3c0-0.1,0-0.6,0-0.7c0.1-0.1,0.1,0,0.1-0.2
			C7.3,16,7.4,16,7.5,16c0.1,0,0.1,0,0.2,0.1c0,0.1,0.2,0,0.2,0c0.1,0,0-0.1,0-0.2c0-0.1,0.1,0,0.2-0.1c0.1-0.1,0.2-0.1,0.3,0l0,0
			c-0.2-0.7-0.3-1.5-0.3-2.2H6.2c0.1,3.2,1.4,6.1,3.5,8.3L11.1,20.6z M18.5,23.9c-2.7-0.1-5.1-1.1-7-2.8l-1.4,1.4
			c2.2,2,5.1,3.3,8.3,3.3V23.9z M26.2,21.1c-0.6,0.5-1.3,1-2,1.4c0,0,0,0,0,0.1c-0.1,0.4-0.4,0.7-0.5,0.8c-0.1,0.1-0.1,0-0.3,0.2
			c-0.2,0.1-0.1,0.2-0.2,0.3C23,23.9,22.9,24,22.9,24s-0.5,0.5-1.1,0c-0.1-0.1-0.3-0.1-0.4-0.2l-0.1-0.1c-0.7,0.2-1.4,0.3-2.1,0.3
			v1.9c3.2-0.1,6.1-1.4,8.3-3.4L26.2,21.1z M29.7,13.6c-0.1,2.7-1.2,5.1-2.9,6.9l1.4,1.4c2.1-2.2,3.4-5.1,3.5-8.3H29.7z M25.2,12.9
			h1.1c0-0.3,0-0.6-0.1-0.9c-0.1,0.1-0.1,0.2-0.2,0.2c-0.1,0.1-0.2,0-0.4,0.1c-0.1,0.1,0,0.2-0.1,0.3c0,0.1,0.1,0.1,0.1,0.2
			c-0.1,0.1-0.2,0.1-0.3,0.1C25.4,12.9,25.3,12.8,25.2,12.9z M23,9.7c0.1,0.1,0.2,0.2,0.3,0.3c0,0,0.1,0,0.2,0
			c0.2,0,0.6,0.1,0.7,0.1c0.2,0,0.3,0.4,0.4,0.5c0.1,0.1,0.1,0.1,0.1,0.2c0,0.1-0.1,0.1-0.1,0.2c0,0.1,0.1,0.2,0.2,0.1
			c0.1-0.1,0.2-0.2,0.5-0.2c0.4,0.1,0.2,0.3,0.4,0.3c0.1,0,0.1,0.1,0.1,0.1c0.1,0.1,0,0.1-0.1,0.2c-0.1,0-0.1,0.1-0.1,0.2
			c0,0.1-0.1,0.1-0.1,0.2c0,0.1-0.1,0.2,0,0.2c0.1,0,0.1,0.1,0.2,0c0.1-0.1,0.3-0.4,0.3-0.5l0,0c-0.1-0.3-0.2-0.6-0.3-0.9
			c0-0.1-0.1-0.1-0.1-0.2c-0.1-0.1-0.6-0.3-0.7-0.5c-0.1-0.1,0-0.2,0.1-0.2c0.1-0.1,0.1-0.2,0.1-0.3c0-0.1-0.1-0.1-0.1-0.2
			c-0.1-0.1-0.3-0.3-0.4-0.6c-0.1-0.1-0.2-0.2-0.3-0.3L23,9.7z M19.3,7.8c1.2,0.1,2.4,0.6,3.2,1.3l1.3-1.3C22.6,6.7,21,6,19.3,6V7.8
			z M15.3,9.1c0.9-0.8,2-1.2,3.3-1.3V5.9c-1.8,0.1-3.4,0.8-4.6,1.8L15.3,9.1z M14.3,10.1c0.1-0.2,0.3-0.3,0.4-0.5l-1.3-1.3
			c-1.1,1.2-1.9,2.8-2,4.6l0.8,0c0,0-0.1-0.2-0.1-0.2c0-0.1-0.1-0.4,0-0.5c0-0.1,0.1-0.1,0.1-0.2c0-0.1,0-0.2,0-0.2
			c0,0,0.1-0.1,0.2-0.2c0.1-0.1,0-0.3,0.2-0.3c0.2-0.1,0.2,0,0.3,0c0.1,0,0.1-0.2,0.1-0.2s0-0.1,0-0.2c0.1-0.1,0.5-0.2,0.5-0.2
			s0-0.1,0.3-0.3C14.1,10.2,14.3,10.2,14.3,10.1z M13.4,12.9c0-0.1,0-0.2,0-0.2c-0.1,0-0.1,0-0.2,0c-0.2,0-0.4,0.1-0.4,0.3H13.4z
			 M12.1,13.6h-0.6c0,0.5,0.1,0.9,0.2,1.3c0.1,0,0.1-0.1,0.1-0.2c0-0.1,0.1-0.1,0.1-0.1c0-0.1,0-0.1,0-0.1c0,0-0.1-0.1-0.2-0.2
			c0-0.1,0.1-0.2,0.1-0.3c0-0.1,0-0.2,0.1-0.3C11.9,13.7,11.9,13.8,12.1,13.6z M14.8,16.9c-0.6-0.7-1.1-1.6-1.3-2.5c0,0,0,0,0,0
			c-0.1-0.1-0.2-0.1-0.2-0.1s-0.1,0.4-0.1,0.4c0,0,0,0.2-0.1,0.2c-0.1,0-0.1-0.1-0.1-0.1s-0.1,0-0.2,0c0-0.1-0.1-0.2,0-0.3
			c0.1-0.1,0.1,0.1,0.2,0c0.1-0.1-0.1-0.6,0-0.7c0.1,0,0.3,0.2,0.3,0.2c0,0,0.1,0,0.1,0c0-0.1,0-0.2,0-0.4h-0.8c0,0.1,0,0.4-0.1,0.4
			c-0.1,0.1-0.4-0.1-0.4,0.1c0,0.3,0.1,0.2,0.1,0.3c0,0.2-0.1,0.1,0,0.3c0.1,0.2,0.4,0.2,0.4,0.5c0.1,0.2,0.1,0.3,0.2,0.4
			c0,0.1-0.1,0.2,0,0.3c0.1,0.2,0.2,0.4,0.2,0.5c0,0.1,0,0.3,0.1,0.7c0.1,0.4,0.1,0.1,0.2,0.4c0.1,0.1,0.1,0.3,0.1,0.4
			c0.1,0.1,0.1,0.2,0.2,0.3L14.8,16.9z M17.6,18.6c-0.9-0.2-1.7-0.6-2.4-1.2l-1.3,1.3c1,0.9,2.3,1.5,3.7,1.8
			c-0.2-0.1-0.4-0.2-0.4-0.2c0-0.1-0.1-0.2-0.3-0.4c-0.2-0.2-0.2-0.4-0.2-0.4c0.1-0.1,0.2-0.1,0.2-0.1s0.1-0.4,0.3-0.5
			C17.4,18.7,17.5,18.6,17.6,18.6z M21.9,17.8c-0.1,0.1-0.2,0.1-0.2,0.2c0,0,0,0,0,0c0.2,0.1,0.7,0.1,0.9,0.3
			c0.2,0.1,0.5,0.2,0.5,0.2c0.2,0,0.4,0,0.4,0l-0.2-0.2c-0.2,0-0.3-0.1-0.3-0.1c-0.2-0.1-0.2,0.1-0.4-0.1
			C22.4,17.9,22.1,17.8,21.9,17.8z M26.1,14.9c0.1-0.4,0.2-0.8,0.2-1.3h-1.1c0.1,0.1,0.2,0.1,0.2,0.2c0.1,0.1,0.1,0.2,0.1,0.4
			c0,0.1,0.1,0.1,0.3,0.3C26,14.6,26,14.8,26.1,14.9C26.1,14.9,26.1,14.9,26.1,14.9z M23.2,16.6c0,0.1-0.1,0.1-0.1,0.2c0,0,0,0,0,0
			c0.1-0.1,0.2,0.1,0.2-0.1c0.1-0.1,0.1-0.2,0.1-0.3c0.1-0.1,0.3-0.1,0.4-0.1c0.1,0,0.1,0,0.2,0.2c0.1,0.2,0,0.4,0,0.4
			c0.1,0-0.1,0.2-0.1,0.6c0,0.2-0.1,0.1-0.1,0.3l0,0l0.1,0.1c0,0,0-0.1,0-0.1c0.1-0.2,0.2-0.3,0.3-0.2c0,0.1,0.1,0.3,0.1,0.5
			c0.7-0.8,1.2-1.7,1.5-2.6l-0.1,0c-0.1,0-0.3,0.1-0.6,0.1c-0.2,0-0.4,0-0.4,0s-0.1-0.1-0.2,0c-0.1,0.1-0.1,0.3-0.3,0.2
			c-0.2,0-0.1-0.2-0.2-0.3c-0.1,0,0,0.1-0.1,0.2c-0.1,0.1-0.3,0.4-0.3,0.5c0,0.1-0.4,0.1-0.5,0.2C23.4,16.4,23.4,16.5,23.2,16.6z
			 M21.6,15.5l0.5,0.5c0-0.1-0.1-0.3-0.1-0.3l-0.2-0.1l-0.1-0.1l0-0.1l-0.1,0L21.6,15.5z M21.3,17.3c0.1,0,0.2-0.1,0.2-0.1
			C21.5,17.2,21.4,17.2,21.3,17.3C21.3,17.3,21.3,17.3,21.3,17.3z M15.8,16.9c0.7,0.6,1.5,0.9,2.4,1.1c0,0,0,0.1,0,0.1
			c0,0,0.1,0,0.1,0.1c0.1,0,0.2,0,0.4-0.1c0.1-0.1,0.1,0,0.2-0.1c0,0,0.1-0.1,0.2-0.3c0.1,0,0.1-0.2,0.2-0.2l0,0.5
			c0.6-0.1,1.3-0.2,1.8-0.5c-0.1,0-0.2-0.2-0.3-0.2c-0.1,0,0,0.2,0.1,0.2c0,0.1-0.3,0.1-0.3,0.1c-0.1-0.2-0.2-0.2-0.3-0.1
			c0,0.3-0.1,0.2-0.1,0.2c-0.2-0.4-0.3-0.1-0.5-0.3c-0.1-0.1-0.2-0.1-0.2-0.1c-0.1,0-0.2,0.1-0.3,0.1c0,0-0.1,0.1-0.2,0.2
			c-0.1,0.1-0.2,0.3-0.2,0.3c-0.1,0-0.1-0.1-0.2,0.1c-0.1,0.1-0.3,0.1-0.4,0.1c-0.1,0-0.1-0.1-0.1-0.1c0,0,0-0.1,0-0.1
			c0-0.1,0-0.1,0-0.2c0-0.3,0.1-0.4,0.1-0.5c0-0.1,0.2,0,0.3,0v-0.4l0-0.1c0,0,0-0.1,0-0.1v-0.5c-0.6-0.1-1.1-0.3-1.5-0.6L15.8,16.9
			z M15.9,13.8c0,0,0-0.1,0-0.1c-0.1,0.1-0.2,0-0.2,0.1C15.7,13.9,15.8,13.9,15.9,13.8z M14.2,14.5c0.2,0.7,0.6,1.4,1,1.9l1.3-1.3
			c-0.1-0.1-0.1-0.1-0.2-0.2c0,0,0,0,0,0c-0.1,0.1,0,0.2-0.1,0.3c-0.1,0.1-0.1,0.1-0.2,0.2c0,0.1-0.2,0.3-0.3,0.2
			c-0.1-0.1,0-0.6-0.2-0.6c-0.1,0,0,0,0,0.2c0,0.2-0.1,0.1-0.2,0.1c-0.1,0-0.1-0.1-0.3-0.2c-0.2-0.1,0-0.2,0-0.2S15,14.7,15,14.8
			c0,0,0,0.1-0.1,0.1c-0.1,0-0.1-0.2-0.1-0.2s-0.1,0-0.4-0.1C14.3,14.5,14.3,14.5,14.2,14.5z M18.5,8.6c-1,0.1-2,0.5-2.7,1.1
			l0.7,0.7c0.1,0,0.1,0.1,0.2,0.2c0.1,0,0.1,0,0.2,0c0.1,0,0,0.1,0.1,0.1c0,0.1,0.1,0,0.1,0c0.1-0.1,0.1,0.1,0.2,0
			c0.1-0.1,0.1-0.1,0.1-0.2c0.1-0.1,0.1-0.1,0.1-0.2c0-0.1,0.1-0.2,0.2-0.3c0.1-0.1,0.1-0.1,0.2,0c0.1,0.1-0.1,0.1,0,0.2
			c0,0,0.2,0,0.6-0.1V8.6z M21.9,9.6c-0.7-0.6-1.6-0.9-2.6-1v1.4c0.3,0,0.5,0.1,0.5,0.1s0,0,0.1,0c0.2-0.3,0.4-0.3,0.4-0.3
			c0.1,0,0-0.1,0.1-0.2c0.1-0.1,0.2,0,0.2,0.1c0,0.1,0,0.4-0.1,0.6c-0.1,0.1-0.2,0.2-0.4,0.3c0.2,0.1,0.4,0.2,0.6,0.4l0.1-0.1
			c0,0,0-0.1,0-0.1s0.1,0,0.1-0.1l0.6-0.6c0,0,0,0-0.1,0c-0.1-0.1-0.3-0.1,0.1-0.3C21.8,9.6,21.8,9.6,21.9,9.6z M22.6,10.3
			c0,0-0.1-0.1-0.1-0.1l-0.1,0.1c0.1,0.1,0.2,0.2,0.2,0.2C22.5,10.4,22.6,10.4,22.6,10.3z M24.9,3.3c0.1-0.1,0.1,0,0.2,0
			c0.1,0,0.1-0.1,0.2,0c0.1,0.1,0.2,0.2,0.2,0.3c0,0.1,0.1,0.2,0.1,0.3c0,0.1-0.2,0.2-0.3,0.1c-0.1-0.1-0.2-0.3-0.2-0.3l-0.3-0.2
			C24.8,3.6,24.8,3.4,24.9,3.3z M19.4,2.1c0,0,0.1-0.1,0.1-0.1c0.1,0,0.2,0,0.2,0l0.4-0.2l0.3-0.1l0.1-0.1c0,0,0.5-0.1,1,0.3
			c0.1,0,0.1,0.1,0.1,0.1l0,0.1c0,0-0.3,0.2-0.4,0.2c-0.1,0-0.3,0-0.3,0l-0.3,0l-0.5,0.1c0,0-0.2,0-0.4,0c-0.1,0-0.1,0-0.1-0.1
			C19.5,2.3,19.5,2.2,19.4,2.1L19.4,2.1 M25.1,8c0.1,0.1,0.3,0.4,0.4,0.5c0,0,0,0,0,0.1C25.4,8.4,25.2,8.2,25.1,8"/>
		<g>
			<path class="st1" d="M25.8,27.3c0.1,0,1-0.2,2.6-0.4c1.5-0.2,2.1-0.1,3.2-0.4c1.2-0.3,1.8-0.9,2.1-1.3c0,0,0.1,0,0.1,0
				c0,0.1-0.8,1.5-2.5,2.4c-1.7,0.9-3.6,0.7-4.1,0.6c-0.5-0.1-1.1-0.3-1.8-0.5c-0.7-0.2-1.6-0.4-2-0.3c0,0-0.1-0.1,0.1-0.1
				c0.2,0,1.1-0.2,1.6-0.5c1-0.4,1.8-1.4,2.4-2c0.6-0.6,1.7-1.7,2.3-1.9c0,0,0,0,0,0.1c0,0.1-0.5,0.7-0.7,1.3
				c-0.2,0.6-0.5,1.2-1,1.7C27.6,26.5,27,27,25.8,27.3C25.8,27.2,25.7,27.3,25.8,27.3 M36.6,20.6c0,0-0.2,1.8-1.9,3.4
				c-1.3,1.2-2.4,1.6-3,1.8C31,26,30.4,26,29.8,26.2c-0.6,0.1-1.4,0.3-1.6,0.4c0,0-0.1,0,0,0c0-0.1,0.3-0.1,0.9-1
				c0.6-0.8,1.1-2.7,1.1-2.7s0.3-1,0.6-1.6c0.3-0.7,1.3-2.1,1.5-2.2c0,0,0.1,0,0.1,0c0,0.1-0.2,0.4-0.4,1.1c-0.2,1-0.3,2.1-0.4,2.5
				c-0.1,0.4-0.3,1.2-0.9,1.8c-0.6,0.7-0.6,0.6-1,1.1c-0.1,0.1,0,0,0,0s0.5-0.3,0.8-0.5c0.3-0.3,0.7-0.6,1.4-1
				c0.6-0.4,1.3-0.6,2.6-1.3C35.8,22,36.3,21.2,36.6,20.6C36.5,20.7,36.6,20.5,36.6,20.6z M33.6,15.3c0,0-0.1,0.6,0,1
				c0.1,0.4,0.5,2.1,0.5,3c0,0.9-0.2,1.7-0.8,2.5l0,0c0,0,1-1.4,1.4-2c0.5-0.6,1.4-1.5,1.9-2c0.5-0.5,0.9-1.3,1.1-2.3h0
				c0,0,0.2,1.5-0.4,3c-0.6,1.5-1.3,2-1.8,2.4c-0.5,0.4-1.8,1.3-2.5,1.7c-0.7,0.4-1.2,0.8-1.2,0.8s0,0,0,0c0,0,0.5-1,0.7-1.6
				c0.1-0.6,0.3-1.6,0.3-2.3C32.9,18.8,33.1,16.1,33.6,15.3L33.6,15.3z M33.4,11C33.4,11,33.3,10.9,33.4,11
				c-0.1,0.1-0.1,1.3,0.3,2.8c0.2,1,0.9,3.1,0.9,3.3c0.1,0.5,0.1,1.6,0,2c0,0,0,0.1,0.1,0c0.1-0.1,0.7-1.1,1-1.5
				c0.3-0.4,1.2-1.4,1.4-1.9c0.2-0.5,0.7-1.7,0.7-3.4c-0.1-1.5-0.5-2.4-0.5-2.4s-0.1,0-0.1,0c0,0.1,0.1,0.7,0,1.4
				c-0.1,0.6-0.2,1-0.6,1.8c-0.3,0.7-0.7,1.6-0.8,1.9c-0.1,0.3-0.2,1-0.3,1.5c-0.1,0.5-0.3,0.9-0.3,0.9l-0.1,0c0,0,0.2-0.4,0.3-1.3
				c0.1-0.9-0.3-1.8-0.6-2.3C34.5,13.2,33.4,11.7,33.4,11z M35.2,5.3C35.1,5.2,35.2,5.3,35.2,5.3c0,0,0.5,0.8,0.5,2
				c0,1.3-0.2,1.3-0.2,2.5c0,1.1,0.1,2.5,0.1,2.5l-0.1,0c0,0,0-0.7-0.4-1.5c-0.4-0.9-2.2-2.4-2.2-2.4s-0.6-0.6-0.7-0.9
				c0-0.1-0.1,0-0.1,0s0.1,0.9,0.6,2c0.5,1.1,1.7,2.3,2,2.9c0.3,0.7,0.5,0.7,0.8,2l0.1,0c0,0,0-0.5,0.4-1.7c0.4-1.2,0.5-1.1,0.7-2.1
				c0.2-1.1,0.1-2.2,0-2.4C36.7,7.9,36.3,6.4,35.2,5.3z M35,9.9c0,0-0.2-0.5-0.7-0.9c-0.2-0.2-0.6-0.6-1.1-1c-0.5-0.4-1-0.7-1.4-1
				c-0.7-0.6-1.4-1.8-1.4-2.9c0,0,0.3,0.6,0.8,1.1c0.5,0.4,1.6,1.1,2,1.5c0.5,0.4,0.9,1,1.1,1.6l0.1,0c0,0-0.5-1.3-0.6-1.8
				c-0.1-0.5-0.2-1.3-0.5-2c-0.3-0.7-0.6-1.1-1.1-1.4c0,0,0,0,0,0s1.9,0.3,2.6,2.8c0.2,0.7,0,2.4,0,3.1C35,9.4,35,9.9,35,9.9L35,9.9
				z M28.6,1.2c0,0,0.6,0.2,1.2,0.4c0.6,0.2,1.4,0.6,1.9,1.2c0.9,1,1.1,1.8,1.3,2.6C33.2,5.6,33.3,6,33.3,6c0,0,0,0.1,0,0.1
				s-1.7-1.3-2.2-1.9c-0.5-0.5-1.1-1.6-1.5-2C29.2,1.8,28.6,1.2,28.6,1.2z M7.2,28.5c0,0,1.6,1.9,4.1,1.9c1.9,0,3.3-1.1,3.3-1.1
				s1.4-1,2.1-1.4c0.6-0.3,1.5-0.1,1.5-0.1s-1,0.4-2,1.1c-1,0.7-1.3,1-2.3,1.9l0.8,0.7c0,0,0.6-0.8,1.7-1.8c1.1-1,1.8-1.3,2.5-1.6
				c0,0,2.3,1,4.2,3.4l0.8-0.7c0,0-1.9-2-4.2-3c0,0,0.2-0.1,1.2,0c0.4,0,0.9,0.4,1.3,0.7c0.5,0.3,1.4,1,2.1,1.3
				c0.6,0.3,1.5,0.4,2.2,0.5c0.7,0,2.7-0.3,4.1-1.9c0,0,0-0.1,0,0c-0.9,0.4-1.4,0.8-2.8,0.8c-0.8,0-1.8-0.2-3-0.8
				c-1.3-0.6-2.1-1-3.6-1c-1.5,0-2.2,0.2-2.3,0.3c0,0-0.7-0.3-2-0.3c-1.3,0-2.5,0.4-3.3,0.7c-0.7,0.4-2.2,1.2-3.8,1.2
				C8.3,29.2,7.3,28.5,7.2,28.5C7.2,28.5,7.2,28.5,7.2,28.5z M12.2,27.4c-0.1,0-1.1-0.2-2.6-0.4c-1.5-0.2-2.2-0.1-3.3-0.4
				c-1.2-0.3-1.8-0.9-2.1-1.3c0,0-0.1,0-0.1,0c0,0.1,0.8,1.5,2.5,2.4c1.7,0.9,3.7,0.6,4.2,0.5c0.5-0.1,1.1-0.3,1.8-0.5
				c0.7-0.2,1.6-0.4,2-0.3c0,0,0.1-0.1-0.1-0.1c-0.2,0-0.8-0.1-1.6-0.5c-1.3-0.7-1.8-1.3-2.4-1.9c-0.6-0.6-1.7-1.6-2.3-1.9
				c0,0-0.1,0,0,0.1c0,0.1,0.5,0.7,0.7,1.3c0.2,0.6,0.6,1.2,1,1.7C10.3,26.6,11,27,12.2,27.4C12.2,27.3,12.2,27.4,12.2,27.4z
				 M1.2,20.8c0,0,0.2,1.8,2,3.4c1.3,1.2,2.5,1.6,3.1,1.8c0.6,0.1,1.3,0.2,1.8,0.3c0.6,0.1,1.3,0.3,1.5,0.4c0,0,0.1,0,0,0
				c0-0.1-0.3-0.2-0.9-1C8.2,24.8,7.7,23,7.7,23s-0.2-0.7-0.6-1.4c-0.3-0.7-1.4-2.3-1.6-2.4c0,0-0.1-0.1-0.1,0
				c0,0.1,0.2,0.4,0.4,1.1c0.1,0.6,0.3,2.1,0.5,2.5c0.1,0.4,0.4,1.2,0.9,1.8c0.6,0.7,0.6,0.6,1,1c0.1,0.1,0,0,0,0s-0.5-0.3-0.9-0.5
				c-0.3-0.3-0.5-0.4-1.1-0.8c-0.6-0.4-1.5-0.7-2.8-1.4C2.1,22.1,1.6,21.3,1.2,20.8C1.3,20.8,1.3,20.7,1.2,20.8z M4.1,15.4
				c0,0,0.1,0.6,0,1c-0.1,0.4-0.5,2.1-0.4,3c0,0.9,0.3,1.7,0.8,2.5l0,0c0,0-1-1.4-1.4-2c-0.5-0.6-1.5-1.5-1.9-2
				c-0.4-0.6-0.9-1.3-1.1-2.3h0c0,0-0.2,1.5,0.4,3c0.6,1.5,1.3,2,1.8,2.4c0.5,0.4,1.8,1.3,2.5,1.7C5.5,23.3,6,23.7,6,23.7s0,0,0,0
				c0,0-0.5-1-0.7-1.6c-0.1-0.6-0.3-1.6-0.3-2.3C5,19,4.7,16.2,4.1,15.4L4.1,15.4z M4.4,11.1c0-0.1,0.1-0.1,0.1,0
				c0,0.1-0.1,1.9-0.3,2.8c-0.2,1-0.9,3.1-0.9,3.3c-0.1,0.3-0.1,1.6,0,2c0,0,0,0.1-0.1,0c-0.1-0.1-0.7-1-1-1.4
				c-0.3-0.4-1.2-1.4-1.4-2c-0.2-0.5-0.8-2-0.7-3.7c0.1-1.7,0.5-2.1,0.5-2.1s0.1,0,0,0c0,0.1-0.1,0.7,0,1.3c0.1,0.6,0.3,1.2,0.7,2
				c0.4,0.7,0.6,1.5,0.7,1.8c0.1,0.3,0.2,0.9,0.3,1.4c0.1,0.5,0.3,0.9,0.3,0.9l0,0c0,0-0.2-0.4-0.2-1.3c0-0.9,0.2-1.6,0.6-2.3
				C3.3,13.3,4.3,11.8,4.4,11.1z M2.5,5.4C2.5,5.3,2.6,5.4,2.5,5.4C2.6,5.4,2,6,2.1,7.3c0,1.3,0.2,1.5,0.3,2.6
				c0,1.1-0.1,2.5-0.1,2.5l0.1,0c0,0,0-0.7,0.4-1.7c0.5-0.9,2.2-2.4,2.2-2.4s0.5-0.5,0.6-0.9c0-0.1,0.1,0,0.1,0S5.5,8.3,5,9.5
				c-0.5,1.1-1.6,2.2-1.9,2.9c-0.3,0.7-0.6,0.9-0.9,2.2l-0.1,0c0,0,0-0.6-0.4-1.8c-0.4-1.2-0.5-1-0.7-2.1C0.8,9.6,0.9,8.4,1,8.2
				C1.1,8,1.4,6.5,2.5,5.4z M2.8,10C2.8,10,3,9.5,3.4,9C3.6,8.8,4,8.4,4.5,8c0.5-0.4,1-0.8,1.4-1.1c0.7-0.6,1.3-1.8,1.3-2.8
				c0,0-0.3,0.6-0.7,1.1C6,5.6,4.9,6.2,4.4,6.7c-0.5,0.4-1,1-1.2,1.7l0,0c0,0,0.5-1.3,0.6-1.8C3.9,6,4.1,5.2,4.3,4.5
				c0.3-0.7,0.6-1.1,1.1-1.4c0,0,0,0,0,0S3.5,3.3,2.7,5.8c-0.2,0.7,0.1,2.4,0,3.1C2.7,9.5,2.7,10,2.8,10L2.8,10L2.8,10 M9,1.3
				c0,0-0.5,0.2-1.1,0.4c-0.6,0.2-1.4,0.6-2,1.2C5,3.8,4.8,4.7,4.6,5.5C4.5,5.9,4.4,6.2,4.4,6.2S6,4.8,6.5,4.3C7,3.7,7.6,2.7,8,2.3
				C8.4,1.8,9,1.3,9,1.3"/>
		</g>
	</g>
</g>
</svg>
